<svg width="16" height="13" viewBox="0 0 16 13" fill="none" xmlns="http://www.w3.org/2000/svg">
<path d="M2.15625 4.55225H4.57776C4.75032 4.55225 4.89026 4.41231 4.89026 4.23975C4.89026 4.06718 4.75032 3.92725 4.57776 3.92725H2.15625C1.98369 3.92725 1.84375 4.06718 1.84375 4.23975C1.84375 4.41231 1.98366 4.55225 2.15625 4.55225Z" fill="#F98AAB"/>
<path d="M2.15625 6.7168H4.57776C4.75032 6.7168 4.89026 6.57686 4.89026 6.4043C4.89026 6.23173 4.75032 6.0918 4.57776 6.0918H2.15625C1.98369 6.0918 1.84375 6.23173 1.84375 6.4043C1.84375 6.57686 1.98366 6.7168 2.15625 6.7168Z" fill="#F98AAB"/>
<path d="M5.15877 11.9556C5.09324 11.7983 4.90839 11.7211 4.75064 11.7865C4.59335 11.8516 4.51666 12.0376 4.58188 12.1948C4.6472 12.3523 4.83223 12.4291 4.98971 12.364C5.1469 12.2991 5.22415 12.1128 5.15877 11.9556Z" fill="#F98AAB"/>
<path d="M15.9162 7.12052L12.1992 3.13015L13.3372 1.99463C13.5349 1.79915 13.6438 1.53831 13.6438 1.26019C13.6438 0.985944 13.5376 0.727795 13.3449 0.53337C12.9464 0.130833 12.2904 0.125645 11.8826 0.521901C11.8816 0.522869 11.8806 0.523838 11.8796 0.524807L10.3193 2.08155H9.7363V0.881341C9.7363 0.708762 9.59636 0.568811 9.4238 0.568811H7.76902V0.313506C7.76902 0.140927 7.62908 0.000976562 7.45652 0.000976562C7.28395 0.000976562 7.14401 0.140927 7.14401 0.313506V0.568811H6.00242V0.313506C6.00242 0.140927 5.86248 0.000976562 5.68992 0.000976562C5.51735 0.000976562 5.37742 0.140927 5.37742 0.313506V0.568811H4.23579V0.313506C4.23579 0.140927 4.09585 0.000976562 3.92329 0.000976562C3.75073 0.000976562 3.61079 0.140927 3.61079 0.313506V0.568811H2.46913V0.313506C2.46913 0.140927 2.32919 0.000976562 2.15663 0.000976562C1.98407 0.000976562 1.84413 0.140927 1.84413 0.313506V0.568811H0.312501C0.139938 0.568811 0 0.708762 0 0.881341V12.0761C0 12.2487 0.139938 12.3887 0.312501 12.3887H3.50226C3.67482 12.3887 3.81476 12.2487 3.81476 12.0761C3.81476 11.9036 3.67482 11.7636 3.50226 11.7636H0.625001V1.19387H1.84413V1.47743C1.84413 1.65001 1.98407 1.78996 2.15663 1.78996C2.32919 1.78996 2.46913 1.65001 2.46913 1.47743V1.19387H3.61076V1.47743C3.61076 1.65001 3.75069 1.78996 3.92326 1.78996C4.09582 1.78996 4.23576 1.65001 4.23576 1.47743V1.19387H5.37739V1.47743C5.37739 1.65001 5.51732 1.78996 5.68989 1.78996C5.86245 1.78996 6.00239 1.65001 6.00239 1.47743V1.19387H7.14398V1.47743C7.14398 1.65001 7.28392 1.78996 7.45648 1.78996C7.62905 1.78996 7.76898 1.65001 7.76898 1.47743V1.19387H9.11127V2.0833C8.54995 2.10611 8.01389 2.34317 7.61589 2.73898L5.31617 5.03889C5.1772 5.17787 5.20301 5.41592 5.36742 5.52234C5.62636 5.68982 5.91661 5.79812 6.21989 5.84178C6.32098 5.85634 6.42351 5.86372 6.52686 5.86372C6.52736 5.86372 6.52783 5.86368 6.52829 5.86368L6.16957 6.22159C6.14354 6.24759 6.12289 6.27785 6.10761 6.31051L5.10514 7.8164C5.01479 7.9521 4.97792 8.10702 4.99142 8.25722H2.15663C1.98407 8.25722 1.84413 8.39717 1.84413 8.56975C1.84413 8.74233 1.98407 8.88228 2.15663 8.88228H5.67611C5.81136 8.88228 5.94776 8.83718 6.05914 8.76149L7.58286 7.72605C7.60089 7.71423 7.6183 7.70029 7.63355 7.68511L8.34027 6.97998L9.1113 7.74939V11.7636H6.25167C6.07911 11.7636 5.93917 11.9036 5.93917 12.0761C5.93917 12.2487 6.07911 12.3887 6.25167 12.3887H9.4238C9.59636 12.3887 9.7363 12.2487 9.7363 12.0761V8.35948C10.1314 8.68761 10.6239 8.86647 11.1441 8.86647H12.3908C12.6501 8.86647 12.9015 8.97401 13.079 9.15984L15.4599 11.6903C15.6493 11.8916 16 11.7529 16 11.4761V7.33354C16 7.2545 15.9701 7.17837 15.9162 7.12052ZM8.05789 3.18099C8.36058 2.87828 8.77508 2.70654 9.20314 2.70654H9.69274L7.7457 4.64907C7.56555 4.82205 7.39502 4.99157 7.1643 5.09852C6.82386 5.25631 6.42833 5.2815 6.07042 5.16859L8.05789 3.18099ZM12.3193 0.969036C12.4824 0.811959 12.7428 0.813616 12.9009 0.973287C12.9769 1.04998 13.0187 1.15187 13.0187 1.26019C13.0187 1.37007 12.9758 1.47305 12.8968 1.55118L9.63086 4.8098L9.47349 4.65238C9.32611 4.50499 9.14014 4.39673 8.9393 4.3412L12.3193 0.969036ZM5.70786 8.2445C5.68111 8.26269 5.65617 8.2606 5.63298 8.23759C5.59842 8.20334 5.61595 8.177 5.62539 8.16281L6.44201 6.9361L6.92442 7.4178L5.70786 8.2445ZM7.41311 7.02214L6.83333 6.4423L7.42877 5.84812C7.48498 6.05161 7.59636 6.23738 7.74536 6.38636L7.89783 6.53853L7.41311 7.02214ZM15.375 10.688L13.5326 8.72986C13.2362 8.41946 12.82 8.24144 12.3908 8.24144H11.1441C10.7219 8.24144 10.3249 8.07739 10.0263 7.77955L8.18617 5.94325C7.92052 5.74402 7.97986 5.30232 8.18627 5.09267C8.41817 4.86697 8.80471 4.86743 9.03152 5.09433L10.5266 6.58953C10.6469 6.70976 10.8482 6.70979 10.9686 6.58953C11.0906 6.46749 11.0906 6.2696 10.9686 6.14752L10.0728 5.25172L11.7565 3.57187L15.375 7.45658V10.688Z" fill="#F98AAB"/>
</svg>
