<svg width="11" height="10" viewBox="0 0 11 10" fill="none" xmlns="http://www.w3.org/2000/svg">
<path d="M7.1721 0.000366211H9.7032C10.0548 0.000366211 10.3536 0.132967 10.5997 0.398094C10.8457 0.66327 10.9688 0.985244 10.9688 1.36414V4.09158C10.9688 4.47045 10.8458 4.79238 10.5997 5.0575C10.3536 5.32261 10.0547 5.45526 9.7032 5.45526H8.22676C8.05105 5.45526 7.90161 5.52158 7.77856 5.65413C7.65551 5.78661 7.59401 5.9477 7.59401 6.13719V6.36436C7.59401 6.86632 7.75882 7.29473 8.08836 7.64994C8.41791 8.00497 8.81555 8.18255 9.28141 8.18255H9.7032C9.81752 8.18255 9.91636 8.22766 9.99988 8.31757C10.0833 8.40748 10.1251 8.51405 10.1251 8.63718V9.54645C10.1251 9.66937 10.0833 9.77615 9.99988 9.86608C9.91629 9.95597 9.81755 10.0011 9.7032 10.0011H9.28139C8.82435 10.0011 8.38822 9.90507 7.97295 9.71336C7.55769 9.52162 7.19849 9.26229 6.89527 8.93554C6.59213 8.60877 6.35152 8.22176 6.17357 7.77425C5.99565 7.32677 5.90665 6.85682 5.90665 6.36438V1.36404C5.90665 0.985144 6.0297 0.663196 6.27573 0.398069C6.52176 0.132942 6.82061 0.000366211 7.1721 0.000366211Z" fill="#F6762C"/>
<path d="M0.369686 0.39783C0.615694 0.132716 0.914501 0.00012207 1.26608 0.00012207H3.79709C4.14867 0.00012207 4.44746 0.132716 4.69349 0.39783C4.9395 0.663019 5.0625 0.984952 5.0625 1.36383V4.09114C5.0625 4.46999 4.9395 4.7919 4.69349 5.05701C4.44746 5.3221 4.14865 5.45475 3.79709 5.45475H2.32065C2.14494 5.45475 1.99538 5.52107 1.87235 5.65361C1.74944 5.78616 1.6878 5.94716 1.6878 6.13665V6.3638C1.6878 6.86574 1.85262 7.29413 2.18222 7.64932C2.51175 8.00434 2.9093 8.18191 3.37521 8.18191H3.79709C3.91132 8.18191 4.01025 8.22701 4.09368 8.31692C4.17718 8.40682 4.21899 8.51339 4.21899 8.63651V9.54574C4.21899 9.66866 4.17718 9.77543 4.09368 9.86536C4.01027 9.95524 3.91134 10.0004 3.79709 10.0004H3.37521C2.91824 10.0004 2.48214 9.90434 2.06681 9.71264C1.65163 9.52091 1.29247 9.26159 0.989232 8.93486C0.686015 8.6081 0.44527 8.22102 0.267436 7.77363C0.0895319 7.32627 0.000488281 6.85624 0.000488281 6.36383V1.36373C0.000557423 0.984852 0.123492 0.662919 0.369686 0.39783Z" fill="#F6762C"/>
</svg>
