<svg width="19" height="22" viewBox="0 0 19 22" fill="none" xmlns="http://www.w3.org/2000/svg">
<path d="M16.6704 5.05948C16.5363 4.9805 16.3713 4.975 16.2323 5.04483C16.0935 5.11482 15.9996 5.25048 15.9829 5.40509C15.9664 5.55544 15.9408 5.70575 15.9087 5.86345C15.0113 9.93633 13.2091 11.9173 10.3978 11.9173H6.27281C6.0553 11.9177 5.86805 12.0709 5.82456 12.284L4.44958 18.7293L4.20393 20.3702C4.06269 21.1163 4.55305 21.8358 5.29915 21.977C5.38143 21.9925 5.46492 22.0006 5.54866 22.001H8.30778C8.94019 22.0029 9.49156 21.5713 9.64152 20.9568L10.7562 16.5008H13.1477C15.9701 16.5008 17.9208 14.2503 18.6403 10.1637C19.1153 8.21774 18.3295 6.18173 16.6704 5.05948Z" fill="#03A9F4"/>
<path d="M15.8048 1.63357C14.8991 0.606208 13.5993 0.0122798 12.2298 3.33802e-05H4.63994C3.50408 -0.00606833 2.53704 0.82501 2.37217 1.94888L0.0154637 17.671C-0.0974133 18.422 0.419793 19.1223 1.17075 19.2352C1.23889 19.2455 1.30777 19.2505 1.37669 19.2505H4.89663C5.11414 19.2501 5.30139 19.0969 5.34488 18.8838L6.64195 12.8337H10.4002C13.6617 12.8337 15.8167 10.5539 16.8067 6.05018C16.8465 5.87065 16.8771 5.68923 16.8984 5.50657C17.1282 4.11714 16.7273 2.69755 15.8048 1.63357Z" fill="#283593"/>
</svg>
