<svg width="49" height="16" viewBox="0 0 49 16" fill="none" xmlns="http://www.w3.org/2000/svg">
<path d="M19.9926 0.384766L17.6145 15.1827H21.4156L23.7922 0.384766H19.9926ZM31.4581 6.41261C30.1297 5.75669 29.3154 5.31399 29.3154 4.64313C29.3317 4.03317 30.004 3.40827 31.5055 3.40827C32.7404 3.37725 33.6481 3.66745 34.3367 3.95619L34.6816 4.11015L35.1984 1.01405C34.4476 0.72385 33.2572 0.40409 31.7868 0.40409C28.0331 0.40409 25.3899 2.35561 25.3735 5.14672C25.3425 7.2064 27.2659 8.34935 28.7053 9.03499C30.1757 9.73833 30.6762 10.1943 30.6762 10.8192C30.66 11.7787 29.4873 12.2214 28.393 12.2214C26.8768 12.2214 26.0623 11.9934 24.8259 11.4588L24.3254 11.2308L23.7938 14.4483C24.6867 14.8452 26.3288 15.1945 28.0333 15.2124C32.0224 15.2124 34.6181 13.2904 34.6508 10.3158C34.6638 8.68405 33.6496 7.43425 31.4581 6.41261ZM44.9432 0.430561H42.0024C41.0962 0.430561 40.4076 0.691208 40.0152 1.62109L34.369 15.1827H38.3582L39.4568 12.2465H43.9199L44.49 15.1945H48.0083L44.9432 0.430561ZM40.5632 9.28346C40.6401 9.29093 42.0943 4.49048 42.0943 4.49048L43.2523 9.28346C43.2523 9.28346 41.314 9.28346 40.5632 9.28346ZM14.4383 0.384766L10.7142 10.4386L10.3085 8.45588C9.6199 6.1682 7.46104 3.68223 5.05176 2.44737L8.46195 15.1679H12.4838L18.4601 0.386389H14.4383V0.384766Z" fill="#2394BC"/>
<path d="M9.05668 2.29429C8.76647 1.16621 7.84095 0.405396 6.58397 0.38916H0.686226L0.625488 0.662898C5.22613 1.79682 9.0877 5.28593 10.3405 8.56787L9.05668 2.29429Z" fill="#EFC75E"/>
</svg>
