<svg width="24" height="24" viewBox="0 0 24 24" fill="none" xmlns="http://www.w3.org/2000/svg">
<path d="M19.908 4.8144L19.4171 4.32352L18.7209 5.0198C18.693 5.04417 15.988 7.70049 12.0017 7.70049C8.01552 7.70049 5.31046 5.04417 5.28609 5.01632L4.5898 4.32004L4.09544 4.8144L4.71513 5.43409L2.39999 7.07036L2.80036 7.63783L5.23735 5.89712C5.44971 6.07119 5.73171 6.28704 6.07985 6.52029L4.39833 8.87721L4.9658 9.28105L6.67517 6.88932C7.01378 7.08813 7.36238 7.2694 7.7196 7.43242L6.45236 9.96689L7.07553 10.2767L8.36366 7.70049C8.63056 7.80261 8.91024 7.89545 9.20268 7.979L8.50639 10.7328L9.18179 10.9034L9.87807 8.15307C10.2288 8.22759 10.5832 8.28338 10.9399 8.32018V11.1819H11.6362V8.39677C11.7511 8.39677 11.866 8.39677 11.9843 8.39677C12.2211 8.39677 12.4508 8.39677 12.6806 8.36892V11.1819H13.3769V8.29233C13.6206 8.25752 13.8585 8.21458 14.0906 8.16352L14.7869 10.9138L15.4831 10.7502L14.7869 7.99641C15.0793 7.91286 15.359 7.82002 15.6259 7.7179L16.914 10.2941L17.5372 9.9843L16.2699 7.44983C16.6272 7.28681 16.9758 7.10553 17.3144 6.90673L19.0237 9.29846L19.5912 8.89462L17.9201 6.53422C18.2683 6.30096 18.5503 6.08511 18.7626 5.91104L21.1996 7.65175L21.6 7.08428L19.2849 5.44802L19.908 4.8144Z" fill="black"/>
<path d="M19.908 13.1698L19.4171 12.6789L18.7209 13.3752C18.693 13.3996 15.988 16.0559 12.0017 16.0559C8.01552 16.0559 5.31046 13.3996 5.28609 13.3717L4.5898 12.6754L4.09544 13.1698L4.71513 13.7895L2.39999 15.4257L2.80036 15.9932L5.23735 14.2525C5.44971 14.4266 5.73171 14.6424 6.07985 14.8757L4.39833 17.2326L4.9658 17.6364L6.67517 15.2447C7.01378 15.4435 7.36238 15.6248 7.7196 15.7878L6.45236 18.3223L7.07553 18.6321L8.36366 16.0559C8.63056 16.158 8.91024 16.2508 9.20268 16.3344L8.50639 19.0882L9.18179 19.2588L9.87807 16.5085C10.2288 16.583 10.5832 16.6388 10.9399 16.6756V19.5373H11.6362V16.7522C11.7511 16.7522 11.866 16.7522 11.9843 16.7522C12.2211 16.7522 12.4508 16.7522 12.6806 16.7243V19.5373H13.3769V16.6477C13.6206 16.6129 13.8585 16.57 14.0906 16.5189L14.7869 19.2692L15.4831 19.1056L14.7869 16.3518C15.0793 16.2683 15.359 16.1754 15.6259 16.0733L16.914 18.6495L17.5372 18.3397L16.2699 15.8052C16.6272 15.6422 16.9758 15.4609 17.3144 15.2621L19.0237 17.6539L19.5912 17.25L17.9201 14.8896C18.2683 14.6564 18.5503 14.4405 18.7626 14.2664L21.1996 16.0071L21.6 15.4397L19.2849 13.8034L19.908 13.1698Z" fill="black"/>
</svg>
