<svg width="24" height="24" viewBox="0 0 24 24" fill="none" xmlns="http://www.w3.org/2000/svg">
<path fill-rule="evenodd" clip-rule="evenodd" d="M5.73065 13.4327H10.3947L10.0898 20.923H6.03478L5.73065 13.4327ZM13.1065 6.57295H18.236L18.0597 20.923H13.2828L13.1065 6.57295ZM14.0362 4.60226H17.3071V5.89634H14.0362V4.60226ZM13.6983 3.92604C13.5109 3.92604 13.3592 4.07734 13.3592 4.26396V5.89596H12.7636C12.5755 5.89596 12.4242 6.0511 12.4257 6.23849L12.6108 21.2656C12.6131 21.451 12.764 21.5996 12.9487 21.5996H18.3938C18.5789 21.5996 18.7294 21.451 18.7321 21.2656L18.9161 6.23849C18.9176 6.0511 18.7659 5.89596 18.5781 5.89596H17.9837V4.26396C17.9837 4.07695 17.832 3.92604 17.6458 3.92604H13.6983ZM8.40137 2.98831V2.73871C8.40137 2.5517 8.25046 2.40002 8.06345 2.40002C7.87644 2.40002 7.72553 2.5517 7.72553 2.73871V2.98831H7.13916C6.95177 2.98831 6.80086 3.14038 6.80086 3.32738C6.80086 3.51362 6.95177 3.6653 7.13916 3.6653H7.72553V4.11266H7.09231C6.90531 4.11266 6.7544 4.26434 6.7544 4.45174C6.7544 4.63798 6.90531 4.78966 7.09231 4.78966H7.72553V5.23702H7.04662C6.85923 5.23702 6.70755 5.38831 6.70755 5.57571C6.70755 5.76195 6.85923 5.91362 7.04662 5.91362H7.72553V6.36137H7.00015C6.81391 6.36137 6.66223 6.51305 6.66223 6.70006C6.66223 6.8863 6.81391 7.03798 7.00015 7.03798H7.72553V7.48534H6.95407C6.76707 7.48534 6.61577 7.63702 6.61577 7.82441C6.61577 8.01065 6.76707 8.16233 6.95407 8.16233H7.72553V12.7565H5.37814C5.18614 12.7565 5.03331 12.917 5.04022 13.1086L5.37199 21.2752C5.37967 21.4568 5.52828 21.6 5.70991 21.6H10.4143C10.5963 21.6 10.7449 21.4568 10.7526 21.2759L11.0851 13.109C11.0913 12.9163 10.9396 12.7569 10.7465 12.7569H8.40137V8.16233H9.17129C9.3583 8.16233 9.50959 8.01065 9.50959 7.82441C9.50959 7.63702 9.35868 7.48534 9.17129 7.48534H8.40137V7.03798H9.12521C9.31222 7.03798 9.46351 6.8863 9.46351 6.70006C9.46351 6.51305 9.31222 6.36137 9.12521 6.36137H8.40137V5.91362H9.07913C9.26652 5.91362 9.41744 5.76156 9.41744 5.57571C9.41744 5.3887 9.26652 5.23702 9.07913 5.23702H8.40137V4.78966H9.03267C9.22006 4.78966 9.37097 4.63798 9.37097 4.45174C9.37097 4.26434 9.22006 4.11266 9.03267 4.11266H8.40137V3.66492H8.98659C9.17359 3.66492 9.32489 3.51324 9.32489 3.327C9.32489 3.13999 9.17359 2.98793 8.98659 2.98793H8.40137V2.98831Z" fill="black"/>
</svg>
