<svg width="24" height="24" viewBox="0 0 24 24" fill="none" xmlns="http://www.w3.org/2000/svg">
<path d="M14.7797 9.53697C15.3394 9.1909 15.8511 8.75673 16.3047 8.27665C17.7294 6.76572 19.9868 6.43559 21.7847 7.4704C21.9773 7.58014 22.061 7.83328 21.9509 8.02739C21.8577 8.19267 21.6687 8.26061 21.4879 8.20306C19.6197 7.60242 17.5841 8.52122 16.7901 10.3264C16.3791 11.2606 15.7611 12.0692 14.9745 12.7139L7.82101 18.5874L13.8687 11.0365C14.2396 10.5734 14.5388 10.0798 14.7797 9.53697ZM15.4082 10.0801C15.1565 10.6016 14.8558 11.0917 14.4935 11.5441L13.2493 13.0975L14.4638 12.1042C15.1518 11.5414 15.7003 10.8079 16.0589 9.99197C16.1737 9.73007 16.3201 9.50072 16.481 9.26376C16.1488 9.57035 15.7859 9.83124 15.4082 10.0801Z" fill="black"/>
<path d="M10.128 9.91259C10.5544 9.38026 11.0581 8.93703 11.626 8.56536C12.5654 7.95128 13.3534 7.12068 13.9392 6.1601C15.022 4.38188 17.167 3.58022 19.1377 4.21638C19.3503 4.28315 19.4742 4.51385 19.406 4.72645C19.3489 4.90853 19.1783 5.02421 18.9896 5.00489C17.0377 4.80882 15.2413 6.12424 14.8365 8.05762C14.6282 9.05686 14.1928 9.988 13.5563 10.7827L5.85496 20.3983C5.29807 21.0936 4.28722 21.2019 3.59748 20.6416C2.90773 20.0812 2.79899 19.0633 3.35588 18.368L10.128 9.91259ZM10.7528 10.4202L3.98065 18.8755C3.70195 19.2235 3.75595 19.7317 4.10145 20.0123C4.44695 20.293 4.9515 20.2386 5.23019 19.8907L12.9315 10.2752C13.4884 9.57985 13.8702 8.78254 14.0536 7.90845C14.1106 7.62864 14.1955 7.33821 14.3038 7.07301C13.6982 7.92821 12.9296 8.66517 12.0542 9.23785C11.5556 9.56295 11.1257 9.95453 10.7528 10.4202Z" fill="black"/>
</svg>
