<svg width="22" height="25" viewBox="0 0 22 25" fill="none" xmlns="http://www.w3.org/2000/svg">
<path d="M21.9338 23.7999L20.1297 6.99229C20.0996 6.72168 19.8591 6.51121 19.5885 6.51121H16.251V5.48892C16.251 2.60245 13.9058 0.257202 11.0193 0.257202C8.13284 0.257202 5.78759 2.60245 5.78759 5.48892V6.51121H2.35991C2.0893 6.51121 1.84877 6.72168 1.8187 6.99229L0.0146573 23.7999C-0.01541 23.9503 0.0447247 24.1006 0.134927 24.2209C0.225129 24.3411 0.375466 24.4013 0.525802 24.4013H21.4226C21.5729 24.4013 21.7233 24.3411 21.8135 24.2209C21.9037 24.1006 21.9638 23.9503 21.9338 23.7999ZM15.7098 9.54801C15.9804 9.54801 16.1909 9.75848 16.1909 10.0291C16.1909 10.2997 15.9804 10.5102 15.7098 10.5102C15.4392 10.5102 15.2287 10.2997 15.2287 10.0291C15.2287 9.75848 15.4392 9.54801 15.7098 9.54801ZM6.87001 5.48892C6.87001 3.2038 8.73419 1.33963 11.0193 1.33963C13.3044 1.33963 15.1686 3.2038 15.1686 5.48892V6.51121H6.87001V5.48892ZM6.3288 9.54801C6.59941 9.54801 6.80988 9.75848 6.80988 10.0291C6.80988 10.2997 6.59941 10.5102 6.3288 10.5102C6.05819 10.5102 5.84772 10.2997 5.84772 10.0291C5.84772 9.75848 6.05819 9.54801 6.3288 9.54801ZM1.15722 23.2888L2.84099 7.56357H5.78759V8.55579C5.18624 8.76626 4.7653 9.33754 4.7653 9.99902C4.7653 10.8409 5.45685 11.5325 6.29873 11.5325C7.14062 11.5325 7.83217 10.8409 7.83217 9.99902C7.83217 9.33754 7.41122 8.76626 6.80988 8.55579V7.56357H15.1085V8.55579C14.5071 8.76626 14.0862 9.33754 14.0862 9.99902C14.0862 10.8409 14.7777 11.5325 15.6196 11.5325C16.4615 11.5325 17.153 10.8409 17.153 9.99902C17.153 9.33754 16.7321 8.76626 16.1308 8.55579V7.56357H19.1976L20.8814 23.2888H1.15722Z" fill="#4C5228"/>
</svg>
