<svg width="23" height="25" viewBox="0 0 23 25" fill="none" xmlns="http://www.w3.org/2000/svg">
<path d="M0.732422 23.8569L2.63086 7.13979H19.6115L21.4572 23.8569H0.732422Z" fill="#4C5228"/>
<path d="M22.0548 23.7999L20.2508 6.99229C20.2207 6.72168 19.9802 6.51121 19.7096 6.51121H16.3721V5.48892C16.3721 2.60245 14.0269 0.257202 11.1404 0.257202C8.25393 0.257202 5.90868 2.60245 5.90868 5.48892V6.51121H2.481C2.2104 6.51121 1.96986 6.72168 1.93979 6.99229L0.135751 23.7999C0.105684 23.9503 0.165818 24.1006 0.25602 24.2209C0.346222 24.3411 0.496559 24.4013 0.646896 24.4013H21.5437C21.694 24.4013 21.8444 24.3411 21.9346 24.2209C22.0248 24.1006 22.0849 23.9503 22.0548 23.7999ZM15.8309 9.54801C16.1015 9.54801 16.312 9.75848 16.312 10.0291C16.312 10.2997 16.1015 10.5102 15.8309 10.5102C15.5603 10.5102 15.3498 10.2997 15.3498 10.0291C15.3498 9.75848 15.5603 9.54801 15.8309 9.54801ZM6.99111 5.48892C6.99111 3.2038 8.85528 1.33963 11.1404 1.33963C13.4255 1.33963 15.2897 3.2038 15.2897 5.48892V6.51121H6.99111V5.48892ZM6.44989 9.54801C6.7205 9.54801 6.93097 9.75848 6.93097 10.0291C6.93097 10.2997 6.7205 10.5102 6.44989 10.5102C6.17929 10.5102 5.96882 10.2997 5.96882 10.0291C5.96882 9.75848 6.17929 9.54801 6.44989 9.54801ZM1.27831 23.2888L2.96208 7.56357H5.90868V8.55579C5.30733 8.76626 4.88639 9.33754 4.88639 9.99902C4.88639 10.8409 5.57794 11.5325 6.41983 11.5325C7.26171 11.5325 7.95326 10.8409 7.95326 9.99902C7.95326 9.33754 7.53232 8.76626 6.93097 8.55579V7.56357H15.2296V8.55579C14.6282 8.76626 14.2073 9.33754 14.2073 9.99902C14.2073 10.8409 14.8988 11.5325 15.7407 11.5325C16.5826 11.5325 17.2741 10.8409 17.2741 9.99902C17.2741 9.33754 16.8532 8.76626 16.2518 8.55579V7.56357H19.3187L21.0025 23.2888H1.27831Z" fill="#4C5228"/>
<mask id="path-3-inside-1" fill="white">
<path fill-rule="evenodd" clip-rule="evenodd" d="M7.02494 6.52144H5.9502V8.55215C5.35732 8.77089 4.93457 9.34099 4.93457 10.0098C4.93457 10.8677 5.62998 11.5631 6.48782 11.5631C7.34566 11.5631 8.04107 10.8677 8.04107 10.0098C8.04107 9.3408 7.61808 8.77056 7.02494 8.55196V6.52144Z"/>
</mask>
<path fill-rule="evenodd" clip-rule="evenodd" d="M7.02494 6.52144H5.9502V8.55215C5.35732 8.77089 4.93457 9.34099 4.93457 10.0098C4.93457 10.8677 5.62998 11.5631 6.48782 11.5631C7.34566 11.5631 8.04107 10.8677 8.04107 10.0098C8.04107 9.3408 7.61808 8.77056 7.02494 8.55196V6.52144Z" fill="white"/>
<path d="M5.9502 6.52144V6.42144H5.8502V6.52144H5.9502ZM7.02494 6.52144H7.12494V6.42144H7.02494V6.52144ZM5.9502 8.55215L5.98481 8.64597L6.0502 8.62184V8.55215H5.9502ZM7.02494 8.55196H6.92494V8.62168L6.99036 8.64579L7.02494 8.55196ZM5.9502 6.62144H7.02494V6.42144H5.9502V6.62144ZM6.0502 8.55215V6.52144H5.8502V8.55215H6.0502ZM5.03457 10.0098C5.03457 9.38421 5.42995 8.85068 5.98481 8.64597L5.91558 8.45833C5.28469 8.6911 4.83457 9.29778 4.83457 10.0098H5.03457ZM6.48782 11.4631C5.68521 11.4631 5.03457 10.8124 5.03457 10.0098H4.83457C4.83457 10.9229 5.57476 11.6631 6.48782 11.6631V11.4631ZM7.94107 10.0098C7.94107 10.8124 7.29043 11.4631 6.48782 11.4631V11.6631C7.40088 11.6631 8.14107 10.9229 8.14107 10.0098H7.94107ZM6.99036 8.64579C7.54546 8.85037 7.94107 9.38403 7.94107 10.0098H8.14107C8.14107 9.29757 7.69069 8.69075 7.05952 8.45813L6.99036 8.64579ZM6.92494 6.52144V8.55196H7.12494V6.52144H6.92494Z" fill="#4C5228" mask="url(#path-3-inside-1)"/>
<mask id="path-5-inside-2" fill="white">
<path fill-rule="evenodd" clip-rule="evenodd" d="M16.3863 6.52144H15.3115V8.55215C14.7186 8.77089 14.2959 9.34099 14.2959 10.0098C14.2959 10.8677 14.9913 11.5631 15.8491 11.5631C16.707 11.5631 17.4024 10.8677 17.4024 10.0098C17.4024 9.3408 16.9794 8.77056 16.3863 8.55196V6.52144Z"/>
</mask>
<path fill-rule="evenodd" clip-rule="evenodd" d="M16.3863 6.52144H15.3115V8.55215C14.7186 8.77089 14.2959 9.34099 14.2959 10.0098C14.2959 10.8677 14.9913 11.5631 15.8491 11.5631C16.707 11.5631 17.4024 10.8677 17.4024 10.0098C17.4024 9.3408 16.9794 8.77056 16.3863 8.55196V6.52144Z" fill="white"/>
<path d="M15.3115 6.52144V6.42144H15.2115V6.52144H15.3115ZM16.3863 6.52144H16.4863V6.42144H16.3863V6.52144ZM15.3115 8.55215L15.3461 8.64597L15.4115 8.62184V8.55215H15.3115ZM16.3863 8.55196H16.2863V8.62168L16.3517 8.64579L16.3863 8.55196ZM15.3115 6.62144H16.3863V6.42144H15.3115V6.62144ZM15.4115 8.55215V6.52144H15.2115V8.55215H15.4115ZM14.3959 10.0098C14.3959 9.38421 14.7913 8.85068 15.3461 8.64597L15.2769 8.45833C14.646 8.6911 14.1959 9.29778 14.1959 10.0098H14.3959ZM15.8491 11.4631C15.0465 11.4631 14.3959 10.8124 14.3959 10.0098H14.1959C14.1959 10.9229 14.9361 11.6631 15.8491 11.6631V11.4631ZM17.3024 10.0098C17.3024 10.8124 16.6518 11.4631 15.8491 11.4631V11.6631C16.7622 11.6631 17.5024 10.9229 17.5024 10.0098H17.3024ZM16.3517 8.64579C16.9068 8.85037 17.3024 9.38403 17.3024 10.0098H17.5024C17.5024 9.29757 17.052 8.69075 16.4208 8.45813L16.3517 8.64579ZM16.2863 6.52144V8.55196H16.4863V6.52144H16.2863Z" fill="#4C5228" mask="url(#path-5-inside-2)"/>
<circle cx="6.48832" cy="10.055" r="0.487346" fill="#4C5228"/>
<circle cx="15.8497" cy="10.055" r="0.487346" fill="#4C5228"/>
</svg>
