<svg width="16" height="16" viewBox="0 0 16 16" fill="none" xmlns="http://www.w3.org/2000/svg">
<path d="M8.40332 15.3145C12.5455 15.3145 15.9033 11.9566 15.9033 7.81445C15.9033 3.67232 12.5455 0.314453 8.40332 0.314453C4.26118 0.314453 0.90332 3.67232 0.90332 7.81445C0.90332 11.9566 4.26118 15.3145 8.40332 15.3145ZM8.40332 14.0645C4.95154 14.0645 2.15332 11.2662 2.15332 7.81445C2.15332 4.36267 4.95154 1.56445 8.40332 1.56445C11.8551 1.56445 14.6533 4.36267 14.6533 7.81445C14.6533 11.2662 11.8551 14.0645 8.40332 14.0645ZM5.70156 10.3573L5.77388 10.4439C5.99084 10.6609 6.32762 10.685 6.5712 10.5162L6.65776 10.4439L8.40332 8.6982L10.1489 10.4439C10.3658 10.6609 10.7026 10.685 10.9462 10.5162L11.0328 10.4439C11.2497 10.2269 11.2738 9.89016 11.1051 9.64657L11.0328 9.56001L9.28707 7.81445L11.0328 6.0689C11.2497 5.85194 11.2738 5.51516 11.1051 5.27157L11.0328 5.18501C10.8158 4.96805 10.479 4.94395 10.2354 5.11269L10.1489 5.18501L8.40332 6.9307L6.65776 5.18501C6.4408 4.96805 6.10402 4.94395 5.86044 5.11269L5.77388 5.18501C5.55692 5.40197 5.53281 5.73875 5.70156 5.98234L5.77388 6.0689L7.51957 7.81445L5.77388 9.56001C5.55692 9.77697 5.53281 10.1137 5.70156 10.3573L5.77388 10.4439L5.70156 10.3573Z" fill="#FF3939"/>
</svg>
