<svg width="16" height="16" viewBox="0 0 16 16" fill="none" xmlns="http://www.w3.org/2000/svg">
<path d="M8.40332 15.6182C12.5455 15.6182 15.9033 12.2603 15.9033 8.11816C15.9033 3.97603 12.5455 0.618164 8.40332 0.618164C4.26118 0.618164 0.90332 3.97603 0.90332 8.11816C0.90332 12.2603 4.26118 15.6182 8.40332 15.6182ZM8.40332 14.3682C4.95154 14.3682 2.15332 11.5699 2.15332 8.11816C2.15332 4.66638 4.95154 1.86816 8.40332 1.86816C11.8551 1.86816 14.6533 4.66638 14.6533 8.11816C14.6533 11.5699 11.8551 14.3682 8.40332 14.3682ZM5.70156 10.661L5.77388 10.7476C5.99084 10.9646 6.32762 10.9887 6.5712 10.8199L6.65776 10.7476L8.40332 9.00191L10.1489 10.7476C10.3658 10.9646 10.7026 10.9887 10.9462 10.8199L11.0328 10.7476C11.2497 10.5306 11.2738 10.1939 11.1051 9.95028L11.0328 9.86372L9.28707 8.11816L11.0328 6.37261C11.2497 6.15565 11.2738 5.81887 11.1051 5.57528L11.0328 5.48872C10.8158 5.27176 10.479 5.24766 10.2354 5.4164L10.1489 5.48872L8.40332 7.23441L6.65776 5.48872C6.4408 5.27176 6.10402 5.24766 5.86044 5.4164L5.77388 5.48872C5.55692 5.70568 5.53281 6.04246 5.70156 6.28605L5.77388 6.37261L7.51957 8.11816L5.77388 9.86372C5.55692 10.0807 5.53281 10.4175 5.70156 10.661L5.77388 10.7476L5.70156 10.661Z" fill="#4C5228"/>
</svg>
