<svg width="22" height="20" viewBox="0 0 22 20" fill="none" xmlns="http://www.w3.org/2000/svg">
<path d="M10.8315 19.047L10.8314 19.0468C8.76026 16.9774 7.19183 15.5185 5.81203 14.2351L5.80233 14.2261C5.80231 14.2261 5.8023 14.2261 5.80229 14.2261C5.38685 13.8396 4.98645 13.4666 4.59093 13.095C3.09094 11.6831 1.79143 10.363 1.20943 8.84962C0.507999 7.02216 0.713227 5.12137 1.74687 3.6176L1.74693 3.61752C2.77267 2.1246 4.46781 1.2334 6.28176 1.2334C7.76749 1.2334 9.25775 1.82318 10.5911 2.97906L10.6859 3.07198L11.0381 3.41735L11.3882 3.06985L11.4548 3.00372C12.8168 1.82202 14.3066 1.2334 15.7908 1.2334C17.6044 1.2334 19.2996 2.12458 20.3256 3.61757L20.3257 3.6176C21.3593 5.1214 21.5645 7.02277 20.8634 8.849C20.2817 10.3613 18.9821 11.682 17.4824 13.0945C17.1198 13.4352 16.7537 13.7759 16.376 14.1275L16.2732 14.2232L16.273 14.2233L16.2567 14.2385C14.878 15.5209 13.3098 16.9796 11.2411 19.0468L11.2398 19.0482C11.2347 19.0533 11.2295 19.0585 11.2242 19.0638C11.1898 19.0984 11.1521 19.1363 11.1125 19.1793L11.1109 19.181C11.094 19.1995 11.0699 19.2112 11.0437 19.2128H11.0437H11.0437H11.0436H11.0436H11.0436H11.0436H11.0435H11.0435H11.0435H11.0434H11.0434H11.0434H11.0434H11.0433H11.0433H11.0433H11.0432H11.0432H11.0432H11.0432H11.0431H11.0431H11.0431H11.043H11.043H11.043H11.043H11.0429H11.0429H11.0429H11.0429H11.0428H11.0428H11.0428H11.0427H11.0427H11.0427H11.0427H11.0426H11.0426H11.0426H11.0425H11.0425H11.0425H11.0425H11.0424H11.0424H11.0424H11.0423H11.0423H11.0423H11.0423H11.0422H11.0422H11.0422H11.0421H11.0421H11.0421H11.0421H11.042H11.042H11.042H11.042H11.0419H11.0419H11.0419H11.0418H11.0418H11.0418H11.0418H11.0417H11.0417H11.0417H11.0416H11.0416H11.0416H11.0416H11.0415H11.0415H11.0415H11.0414H11.0414H11.0414H11.0414H11.0413H11.0413H11.0413H11.0413H11.0412H11.0412H11.0412H11.0411H11.0411H11.0411H11.0411H11.041H11.041H11.041H11.0409H11.0409H11.0409H11.0409H11.0408H11.0408H11.0408H11.0407H11.0407H11.0407H11.0407H11.0406H11.0406H11.0406H11.0406H11.0405H11.0405H11.0405H11.0404H11.0404H11.0404H11.0404H11.0403H11.0403H11.0403H11.0402H11.0402H11.0402H11.0402H11.0401H11.0401H11.0401H11.0401H11.04H11.04H11.04H11.0399H11.0399H11.0399H11.0399H11.0398H11.0398H11.0398H11.0397H11.0397H11.0397H11.0397H11.0396H11.0396H11.0396H11.0396H11.0395H11.0395H11.0395H11.0394H11.0394H11.0394H11.0394H11.0393H11.0393H11.0393H11.0392H11.0392H11.0392H11.0392H11.0391H11.0391H11.0391H11.0391H11.039H11.039H11.039H11.0389H11.0389H11.0389H11.0389H11.0388H11.0388H11.0388H11.0388H11.0387H11.0387H11.0387H11.0386H11.0386H11.0386H11.0386H11.0385H11.0385H11.0385H11.0385H11.0384H11.0384H11.0384H11.0383H11.0383C11.0129 19.2128 10.9877 19.2028 10.9685 19.1839C10.9684 19.1838 10.9683 19.1837 10.9682 19.1836L10.8315 19.047Z" fill="#EA7E73" stroke="#EA7E73"/>
</svg>
