<svg width="23" height="20" viewBox="0 0 23 20" fill="none" xmlns="http://www.w3.org/2000/svg">
<path d="M11.3745 19.047L11.3744 19.0468C9.30323 16.9774 7.7348 15.5185 6.355 14.2351L6.34529 14.2261C6.34528 14.2261 6.34527 14.2261 6.34526 14.2261C5.92982 13.8396 5.52942 13.4666 5.13389 13.095C3.63391 11.6831 2.3344 10.363 1.7524 8.84962C1.05097 7.02216 1.2562 5.12137 2.28984 3.6176L2.2899 3.61752C3.31564 2.1246 5.01078 1.2334 6.82473 1.2334C8.31046 1.2334 9.80072 1.82318 11.1341 2.97906L11.2289 3.07198L11.5811 3.41735L11.9312 3.06985L11.9978 3.00372C13.3598 1.82202 14.8495 1.2334 16.3337 1.2334C18.1474 1.2334 19.8426 2.12458 20.8686 3.61757L20.8686 3.6176C21.9023 5.1214 22.1075 7.02277 21.4064 8.849C20.8246 10.3613 19.5251 11.682 18.0253 13.0945C17.6627 13.4352 17.2967 13.7759 16.9189 14.1275L16.8161 14.2232L16.816 14.2233L16.7997 14.2385C15.4209 15.5209 13.8528 16.9796 11.7841 19.0468L11.7827 19.0482C11.7776 19.0533 11.7724 19.0585 11.7672 19.0638C11.7328 19.0984 11.6951 19.1363 11.6554 19.1793L11.6538 19.181C11.637 19.1995 11.6128 19.2112 11.5867 19.2128H11.5867H11.5866H11.5866H11.5866H11.5866H11.5865H11.5865H11.5865H11.5864H11.5864H11.5864H11.5864H11.5863H11.5863H11.5863H11.5862H11.5862H11.5862H11.5862H11.5861H11.5861H11.5861H11.586H11.586H11.586H11.586H11.5859H11.5859H11.5859H11.5858H11.5858H11.5858H11.5858H11.5857H11.5857H11.5857H11.5857H11.5856H11.5856H11.5856H11.5855H11.5855H11.5855H11.5855H11.5854H11.5854H11.5854H11.5853H11.5853H11.5853H11.5853H11.5852H11.5852H11.5852H11.5851H11.5851H11.5851H11.5851H11.585H11.585H11.585H11.5849H11.5849H11.5849H11.5849H11.5848H11.5848H11.5848H11.5848H11.5847H11.5847H11.5847H11.5846H11.5846H11.5846H11.5846H11.5845H11.5845H11.5845H11.5844H11.5844H11.5844H11.5844H11.5843H11.5843H11.5843H11.5842H11.5842H11.5842H11.5842H11.5841H11.5841H11.5841H11.5841H11.584H11.584H11.584H11.5839H11.5839H11.5839H11.5839H11.5838H11.5838H11.5838H11.5837H11.5837H11.5837H11.5837H11.5836H11.5836H11.5836H11.5836H11.5835H11.5835H11.5835H11.5834H11.5834H11.5834H11.5834H11.5833H11.5833H11.5833H11.5832H11.5832H11.5832H11.5832H11.5831H11.5831H11.5831H11.583H11.583H11.583H11.583H11.5829H11.5829H11.5829H11.5829H11.5828H11.5828H11.5828H11.5827H11.5827H11.5827H11.5827H11.5826H11.5826H11.5826H11.5826H11.5825H11.5825H11.5825H11.5824H11.5824H11.5824H11.5824H11.5823H11.5823H11.5823H11.5822H11.5822H11.5822H11.5822H11.5821H11.5821H11.5821H11.5821H11.582H11.582H11.582H11.5819H11.5819H11.5819H11.5819H11.5818H11.5818H11.5818H11.5817H11.5817H11.5817H11.5817H11.5816H11.5816H11.5816H11.5816H11.5815H11.5815H11.5815H11.5814H11.5814H11.5814H11.5814H11.5813H11.5813H11.5813C11.5559 19.2128 11.5307 19.2028 11.5115 19.1839C11.5114 19.1838 11.5113 19.1837 11.5112 19.1836L11.3745 19.047Z" fill="white" stroke="white"/>
</svg>
