<svg width="22" height="20" viewBox="0 0 22 20" fill="none" xmlns="http://www.w3.org/2000/svg">
<path d="M10.8315 18.8514L10.8314 18.8512C8.76026 16.7819 7.19183 15.323 5.81203 14.0396L5.80233 14.0306C5.80231 14.0305 5.8023 14.0305 5.80229 14.0305C5.38685 13.644 4.98645 13.2711 4.59093 12.8995C3.09094 11.4876 1.79143 10.1674 1.20943 8.65406C0.507999 6.82661 0.713227 4.92581 1.74687 3.42204L1.74693 3.42196C2.77267 1.92904 4.46781 1.03784 6.28176 1.03784C7.76749 1.03784 9.25775 1.62763 10.5911 2.7835L10.6859 2.87642L11.0381 3.22179L11.3882 2.8743L11.4548 2.80816C12.8168 1.62646 14.3066 1.03784 15.7908 1.03784C17.6044 1.03784 19.2996 1.92903 20.3256 3.42201L20.3257 3.42204C21.3593 4.92585 21.5645 6.82722 20.8634 8.65344C20.2817 10.1657 18.9821 11.4864 17.4824 12.899C17.1198 13.2396 16.7537 13.5803 16.376 13.9319L16.2732 14.0276L16.273 14.0277L16.2567 14.0429C14.878 15.3254 13.3098 16.7841 11.2411 18.8513L11.2398 18.8526C11.2347 18.8578 11.2295 18.863 11.2242 18.8683C11.1898 18.9028 11.1521 18.9407 11.1125 18.9837L11.1109 18.9855C11.094 19.0039 11.0699 19.0157 11.0437 19.0173H11.0437H11.0437H11.0436H11.0436H11.0436H11.0436H11.0435H11.0435H11.0435H11.0434H11.0434H11.0434H11.0434H11.0433H11.0433H11.0433H11.0432H11.0432H11.0432H11.0432H11.0431H11.0431H11.0431H11.043H11.043H11.043H11.043H11.0429H11.0429H11.0429H11.0429H11.0428H11.0428H11.0428H11.0427H11.0427H11.0427H11.0427H11.0426H11.0426H11.0426H11.0425H11.0425H11.0425H11.0425H11.0424H11.0424H11.0424H11.0423H11.0423H11.0423H11.0423H11.0422H11.0422H11.0422H11.0421H11.0421H11.0421H11.0421H11.042H11.042H11.042H11.042H11.0419H11.0419H11.0419H11.0418H11.0418H11.0418H11.0418H11.0417H11.0417H11.0417H11.0416H11.0416H11.0416H11.0416H11.0415H11.0415H11.0415H11.0414H11.0414H11.0414H11.0414H11.0413H11.0413H11.0413H11.0413H11.0412H11.0412H11.0412H11.0411H11.0411H11.0411H11.0411H11.041H11.041H11.041H11.0409H11.0409H11.0409H11.0409H11.0408H11.0408H11.0408H11.0407H11.0407H11.0407H11.0407H11.0406H11.0406H11.0406H11.0406H11.0405H11.0405H11.0405H11.0404H11.0404H11.0404H11.0404H11.0403H11.0403H11.0403H11.0402H11.0402H11.0402H11.0402H11.0401H11.0401H11.0401H11.0401H11.04H11.04H11.04H11.0399H11.0399H11.0399H11.0399H11.0398H11.0398H11.0398H11.0397H11.0397H11.0397H11.0397H11.0396H11.0396H11.0396H11.0396H11.0395H11.0395H11.0395H11.0394H11.0394H11.0394H11.0394H11.0393H11.0393H11.0393H11.0392H11.0392H11.0392H11.0392H11.0391H11.0391H11.0391H11.0391H11.039H11.039H11.039H11.0389H11.0389H11.0389H11.0389H11.0388H11.0388H11.0388H11.0388H11.0387H11.0387H11.0387H11.0386H11.0386H11.0386H11.0386H11.0385H11.0385H11.0385H11.0385H11.0384H11.0384H11.0384H11.0383H11.0383C11.0129 19.0173 10.9877 19.0073 10.9685 18.9884C10.9684 18.9883 10.9683 18.9882 10.9682 18.988L10.8315 18.8514Z" stroke="#EA7E73"/>
</svg>
