<svg width="23" height="21" viewBox="0 0 23 21" fill="none" xmlns="http://www.w3.org/2000/svg">
<path d="M11.0687 19.2271L11.069 19.2273L11.1123 19.2706C11.1212 19.2616 11.1298 19.2529 11.1381 19.2447C11.1434 19.2393 11.1486 19.2341 11.1535 19.2291L11.1556 19.2271C13.2838 17.1003 14.8974 15.5994 16.3141 14.2817L16.3312 14.2658L16.3313 14.2656L16.4367 14.1675C16.8249 13.8063 17.2006 13.4566 17.5726 13.1071C19.1187 11.6509 20.412 10.3286 20.9874 8.83283C21.6817 7.02457 21.4759 5.15362 20.4609 3.67693L20.4608 3.67688C19.4509 2.20731 17.7822 1.32999 15.9967 1.32999C14.5399 1.32999 13.0649 1.9062 11.703 3.08574L11.6402 3.14807L11.1151 3.66931L10.5868 3.15126L10.4946 3.06091C9.16238 1.90793 7.68675 1.32999 6.22763 1.32999C4.44179 1.32999 2.7732 2.20734 1.76356 3.67681L1.76348 3.67693C0.748513 5.15353 0.542666 7.02384 1.23717 8.83336L11.0687 19.2271ZM11.0687 19.2271C8.93793 17.098 7.32407 15.5969 5.90628 14.2782M11.0687 19.2271L5.90628 14.2782M11.129 20.0785C11.2963 20.0743 11.4553 20.0022 11.5682 19.8784L11.2087 19.367L11.2108 19.3691L11.129 19.4509V19.4736V19.4775V20.0785ZM11.129 20.0785H11.1143C10.952 20.0785 10.7961 20.0142 10.6804 19.8994L11.1136 19.4662L11.1143 19.4927L11.129 20.0785ZM5.90628 14.2782L5.89606 14.2687M5.90628 14.2782L5.89606 14.2687M5.89606 14.2687C5.4693 13.8716 5.05833 13.4888 4.65245 13.1075C3.10618 11.652 1.81291 10.3303 1.23721 8.83348L5.89606 14.2687Z" stroke="#4C5228" stroke-width="1.5"/>
</svg>
