<svg width="23" height="21" viewBox="0 0 23 21" fill="none" xmlns="http://www.w3.org/2000/svg">
<path d="M11.1898 19.2271L11.1901 19.2273L11.2334 19.2706C11.2423 19.2616 11.2509 19.2529 11.2592 19.2447C11.2645 19.2393 11.2697 19.2341 11.2746 19.2291L11.2767 19.2271C13.4049 17.1003 15.0185 15.5994 16.4352 14.2817L16.4522 14.2658L16.4524 14.2656L16.5578 14.1675C16.946 13.8063 17.3217 13.4566 17.6937 13.1071C19.2398 11.6509 20.5331 10.3286 21.1085 8.83283C21.8027 7.02457 21.597 5.15362 20.582 3.67693L20.5819 3.67688C19.572 2.20731 17.9033 1.32999 16.1178 1.32999C14.661 1.32999 13.1859 1.9062 11.8241 3.08574L11.7613 3.14807L11.2362 3.66931L10.7079 3.15126L10.6157 3.06091C9.28347 1.90793 7.80784 1.32999 6.34873 1.32999C4.56288 1.32999 2.89429 2.20734 1.88466 3.67681L1.88457 3.67693C0.869606 5.15353 0.663759 7.02384 1.35826 8.83336L11.1898 19.2271ZM11.1898 19.2271C9.05902 17.098 7.44517 15.5969 6.02737 14.2782M11.1898 19.2271L6.02737 14.2782M11.2501 20.0785C11.4174 20.0743 11.5764 20.0022 11.6893 19.8784L11.3298 19.367L11.3319 19.3691L11.2501 19.4509V19.4736V19.4775V20.0785ZM11.2501 20.0785H11.2354C11.0731 20.0785 10.9172 20.0142 10.8015 19.8994L11.2347 19.4662L11.2354 19.4927L11.2501 20.0785ZM6.02737 14.2782L6.01716 14.2687M6.02737 14.2782L6.01716 14.2687M6.01716 14.2687C5.59039 13.8716 5.17942 13.4888 4.77354 13.1075C3.22727 11.652 1.93401 10.3303 1.35831 8.83348L6.01716 14.2687Z" fill="#4C5228" stroke="#4C5228" stroke-width="1.5"/>
</svg>
