<svg width="35" height="35" viewBox="0 0 35 35" fill="none" xmlns="http://www.w3.org/2000/svg">
<path d="M34.1875 17.5437C34.1875 8.15386 26.5773 0.543701 17.1875 0.543701C7.79766 0.543701 0.1875 8.15386 0.1875 17.5437C0.1875 26.9335 7.79766 34.5437 17.1875 34.5437C17.2871 34.5437 17.3867 34.5437 17.4863 34.5371V21.3089H13.834V17.0523H17.4863V13.9179C17.4863 10.2855 19.7043 8.30659 22.9449 8.30659C24.4988 8.30659 25.8336 8.41948 26.2188 8.47261V12.271H23.9875C22.2277 12.271 21.8824 13.1078 21.8824 14.3363V17.0457H26.0992L25.548 21.3023H21.8824V33.8863C28.9879 31.8476 34.1875 25.3066 34.1875 17.5437Z" fill="white"/>
</svg>
