<svg width="35" height="35" viewBox="0 0 35 35" fill="none" xmlns="http://www.w3.org/2000/svg">
<path d="M34.1895 17.0144C34.1895 7.62456 26.5793 0.0144043 17.1895 0.0144043C7.79961 0.0144043 0.189453 7.62456 0.189453 17.0144C0.189453 26.4042 7.79961 34.0144 17.1895 34.0144C17.2891 34.0144 17.3887 34.0144 17.4883 34.0078V20.7796H13.8359V16.523H17.4883V13.3886C17.4883 9.7562 19.7063 7.7773 22.9469 7.7773C24.5008 7.7773 25.8355 7.89019 26.2207 7.94331V11.7417H23.9895C22.2297 11.7417 21.8844 12.5785 21.8844 13.807V16.5164H26.1012L25.55 20.773H21.8844V33.357C28.9898 31.3183 34.1895 24.7773 34.1895 17.0144Z" fill="#3B5998"/>
</svg>
