<svg width="35" height="35" viewBox="0 0 35 35" fill="none" xmlns="http://www.w3.org/2000/svg">
<path d="M20.3654 17.5443C20.3654 18.9447 19.2301 20.08 17.8297 20.08C16.4292 20.08 15.2939 18.9447 15.2939 17.5443C15.2939 16.1438 16.4292 15.0085 17.8297 15.0085C19.2301 15.0085 20.3654 16.1438 20.3654 17.5443Z" fill="white"/>
<path d="M24.692 12.3523C24.551 11.9701 24.3259 11.6241 24.0335 11.3401C23.7495 11.0477 23.4037 10.8226 23.0213 10.6816C22.7111 10.5611 22.245 10.4177 21.3867 10.3786C20.4582 10.3363 20.1798 10.3271 17.8292 10.3271C15.4784 10.3271 15.2 10.336 14.2718 10.3784C13.4134 10.4177 12.9472 10.5611 12.6372 10.6816C12.2548 10.8226 11.9088 11.0477 11.625 11.3401C11.3326 11.6241 11.1075 11.9699 10.9662 12.3523C10.8458 12.6625 10.7024 13.1288 10.6633 13.9871C10.6209 14.9154 10.6118 15.1937 10.6118 17.5446C10.6118 19.8952 10.6209 20.1736 10.6633 21.1021C10.7024 21.9604 10.8458 22.4264 10.9662 22.7366C11.1075 23.1191 11.3323 23.4648 11.6248 23.7488C11.9088 24.0413 12.2545 24.2663 12.637 24.4074C12.9472 24.5281 13.4134 24.6715 14.2718 24.7105C15.2 24.7529 15.4782 24.7618 17.829 24.7618C20.1801 24.7618 20.4585 24.7529 21.3865 24.7105C22.2448 24.6715 22.7111 24.5281 23.0213 24.4074C23.789 24.1112 24.3959 23.5044 24.692 22.7366C24.8125 22.4264 24.9559 21.9604 24.9952 21.1021C25.0376 20.1736 25.0464 19.8952 25.0464 17.5446C25.0464 15.1937 25.0376 14.9154 24.9952 13.9871C24.9561 13.1288 24.8127 12.6625 24.692 12.3523ZM17.8292 22.0649C15.3324 22.0649 13.3084 20.0412 13.3084 17.5443C13.3084 15.0475 15.3324 13.0237 17.8292 13.0237C20.3258 13.0237 22.3499 15.0475 22.3499 17.5443C22.3499 20.0412 20.3258 22.0649 17.8292 22.0649ZM22.5286 13.9015C21.9451 13.9015 21.4721 13.4285 21.4721 12.845C21.4721 12.2616 21.9451 11.7886 22.5286 11.7886C23.112 11.7886 23.585 12.2616 23.585 12.845C23.5848 13.4285 23.112 13.9015 22.5286 13.9015Z" fill="white"/>
<path d="M17.8296 0.544189C8.44218 0.544189 0.82959 8.15678 0.82959 17.5442C0.82959 26.9316 8.44218 34.5442 17.8296 34.5442C27.217 34.5442 34.8296 26.9316 34.8296 17.5442C34.8296 8.15678 27.217 0.544189 17.8296 0.544189ZM27.5324 21.5688C27.4852 22.6079 27.32 23.3174 27.0787 23.9384C26.5716 25.2496 25.535 26.2862 24.2238 26.7933C23.603 27.0346 22.8933 27.1996 21.8544 27.247C20.8135 27.2945 20.4809 27.3059 17.8298 27.3059C15.1785 27.3059 14.8462 27.2945 13.805 27.247C12.7661 27.1996 12.0564 27.0346 11.4357 26.7933C10.784 26.5482 10.1942 26.164 9.7065 25.6673C9.21001 25.1799 8.82584 24.5897 8.5807 23.9384C8.33946 23.3176 8.17422 22.6079 8.12701 21.569C8.07903 20.5278 8.06787 20.1953 8.06787 17.5442C8.06787 14.8931 8.07903 14.5606 8.12675 13.5196C8.17397 12.4805 8.33894 11.771 8.58018 11.15C8.82532 10.4986 9.20975 9.90851 9.7065 9.4211C10.1939 8.92435 10.784 8.54018 11.4354 8.29504C12.0564 8.0538 12.7659 7.88882 13.805 7.84135C14.846 7.79388 15.1785 7.78247 17.8296 7.78247C20.4807 7.78247 20.8132 7.79388 21.8542 7.84161C22.8933 7.88882 23.6028 8.0538 24.2238 8.29478C24.8751 8.53992 25.4653 8.92435 25.9529 9.4211C26.4494 9.90877 26.8339 10.4986 27.0787 11.15C27.3202 11.771 27.4852 12.4805 27.5327 13.5196C27.5802 14.5606 27.5913 14.8931 27.5913 17.5442C27.5913 20.1953 27.5802 20.5278 27.5324 21.5688Z" fill="white"/>
</svg>
