<svg width="35" height="35" viewBox="0 0 35 35" fill="none" xmlns="http://www.w3.org/2000/svg">
<path d="M20.3654 17.015C20.3654 18.4154 19.2301 19.5507 17.8297 19.5507C16.4292 19.5507 15.2939 18.4154 15.2939 17.015C15.2939 15.6145 16.4292 14.4792 17.8297 14.4792C19.2301 14.4792 20.3654 15.6145 20.3654 17.015Z" fill="url(#paint0_linear)"/>
<path d="M24.6925 11.823C24.5515 11.4408 24.3264 11.0948 24.034 10.8108C23.75 10.5184 23.4042 10.2933 23.0217 10.1523C22.7115 10.0318 22.2455 9.88839 21.3872 9.84932C20.4587 9.80698 20.1803 9.79785 17.8297 9.79785C15.4789 9.79785 15.2005 9.80674 14.2723 9.84908C13.4139 9.88839 12.9477 10.0318 12.6377 10.1523C12.2552 10.2933 11.9093 10.5184 11.6255 10.8108C11.3331 11.0948 11.108 11.4406 10.9667 11.823C10.8462 12.1332 10.7028 12.5995 10.6638 13.4578C10.6214 14.3861 10.6123 14.6644 10.6123 17.0153C10.6123 19.3659 10.6214 19.6443 10.6638 20.5728C10.7028 21.4311 10.8462 21.8971 10.9667 22.2073C11.108 22.5898 11.3328 22.9355 11.6253 23.2195C11.9093 23.512 12.255 23.737 12.6375 23.8781C12.9477 23.9988 13.4139 24.1422 14.2723 24.1812C15.2005 24.2236 15.4787 24.2325 17.8295 24.2325C20.1806 24.2325 20.459 24.2236 21.387 24.1812C22.2453 24.1422 22.7115 23.9988 23.0217 23.8781C23.7895 23.5819 24.3964 22.9751 24.6925 22.2073C24.813 21.8971 24.9564 21.4311 24.9957 20.5728C25.038 19.6443 25.0469 19.3659 25.0469 17.0153C25.0469 14.6644 25.038 14.3861 24.9957 13.4578C24.9566 12.5995 24.8132 12.1332 24.6925 11.823ZM17.8297 21.5357C15.3329 21.5357 13.3089 19.5119 13.3089 17.015C13.3089 14.5182 15.3329 12.4944 17.8297 12.4944C20.3263 12.4944 22.3503 14.5182 22.3503 17.015C22.3503 19.5119 20.3263 21.5357 17.8297 21.5357ZM22.5291 13.3722C21.9456 13.3722 21.4726 12.8992 21.4726 12.3157C21.4726 11.7323 21.9456 11.2593 22.5291 11.2593C23.1125 11.2593 23.5855 11.7323 23.5855 12.3157C23.5853 12.8992 23.1125 13.3722 22.5291 13.3722Z" fill="url(#paint1_linear)"/>
<path d="M17.8301 0.0148926C8.44267 0.0148926 0.830078 7.62749 0.830078 17.0149C0.830078 26.4023 8.44267 34.0149 17.8301 34.0149C27.2175 34.0149 34.8301 26.4023 34.8301 17.0149C34.8301 7.62749 27.2175 0.0148926 17.8301 0.0148926ZM27.5329 21.0395C27.4857 22.0786 27.3205 22.7881 27.0792 23.4091C26.5721 24.7204 25.5355 25.7569 24.2243 26.264C23.6035 26.5053 22.8938 26.6703 21.8549 26.7177C20.8139 26.7652 20.4814 26.7766 17.8303 26.7766C15.179 26.7766 14.8467 26.7652 13.8055 26.7177C12.7666 26.6703 12.0569 26.5053 11.4361 26.264C10.7845 26.0189 10.1947 25.6347 9.70699 25.138C9.2105 24.6506 8.82632 24.0604 8.58119 23.4091C8.33995 22.7883 8.17471 22.0786 8.1275 21.0397C8.07951 19.9985 8.06836 19.666 8.06836 17.0149C8.06836 14.3638 8.07951 14.0313 8.12724 12.9903C8.17445 11.9512 8.33943 11.2417 8.58067 10.6207C8.82581 9.96935 9.21024 9.37921 9.70699 8.8918C10.1944 8.39505 10.7845 8.01088 11.4359 7.76575C12.0569 7.52451 12.7663 7.35953 13.8055 7.31206C14.8465 7.26459 15.179 7.25317 17.8301 7.25317C20.4811 7.25317 20.8137 7.26459 21.8547 7.31232C22.8938 7.35953 23.6033 7.52451 24.2243 7.76549C24.8756 8.01062 25.4658 8.39505 25.9534 8.8918C26.4499 9.37947 26.8344 9.96935 27.0792 10.6207C27.3207 11.2417 27.4857 11.9512 27.5332 12.9903C27.5806 14.0313 27.5918 14.3638 27.5918 17.0149C27.5918 19.666 27.5806 19.9985 27.5329 21.0395V21.0395Z" fill="url(#paint2_linear)"/>
<defs>
<linearGradient id="paint0_linear" x1="20.4932" y1="15.4224" x2="16.9516" y2="20.2035" gradientUnits="userSpaceOnUse">
<stop stop-color="#FACE5A"/>
<stop offset="0.114583" stop-color="#FCAF45"/>
<stop offset="0.208333" stop-color="#F77737"/>
<stop offset="0.307292" stop-color="#F56040"/>
<stop offset="0.390625" stop-color="#FA372A"/>
<stop offset="0.442708" stop-color="#FD1D1D"/>
<stop offset="0.557292" stop-color="#E1306C"/>
<stop offset="0.671875" stop-color="#C13584"/>
<stop offset="0.776042" stop-color="#833AB4"/>
<stop offset="0.901042" stop-color="#5851DB"/>
<stop offset="1" stop-color="#405DE6"/>
<stop offset="1" stop-color="#405DE6"/>
</linearGradient>
<linearGradient id="paint1_linear" x1="25.4109" y1="12.4823" x2="15.3305" y2="26.0908" gradientUnits="userSpaceOnUse">
<stop stop-color="#FACE5A"/>
<stop offset="0.114583" stop-color="#FCAF45"/>
<stop offset="0.208333" stop-color="#F77737"/>
<stop offset="0.307292" stop-color="#F56040"/>
<stop offset="0.390625" stop-color="#FA372A"/>
<stop offset="0.442708" stop-color="#FD1D1D"/>
<stop offset="0.557292" stop-color="#E1306C"/>
<stop offset="0.671875" stop-color="#C13584"/>
<stop offset="0.776042" stop-color="#833AB4"/>
<stop offset="0.901042" stop-color="#5851DB"/>
<stop offset="1" stop-color="#405DE6"/>
<stop offset="1" stop-color="#405DE6"/>
</linearGradient>
<linearGradient id="paint2_linear" x1="35.6874" y1="6.33802" x2="11.9437" y2="38.392" gradientUnits="userSpaceOnUse">
<stop stop-color="#FACE5A"/>
<stop offset="0.114583" stop-color="#FCAF45"/>
<stop offset="0.208333" stop-color="#F77737"/>
<stop offset="0.307292" stop-color="#F56040"/>
<stop offset="0.390625" stop-color="#FA372A"/>
<stop offset="0.442708" stop-color="#FD1D1D"/>
<stop offset="0.557292" stop-color="#E1306C"/>
<stop offset="0.671875" stop-color="#C13584"/>
<stop offset="0.776042" stop-color="#833AB4"/>
<stop offset="0.901042" stop-color="#5851DB"/>
<stop offset="1" stop-color="#405DE6"/>
<stop offset="1" stop-color="#405DE6"/>
</linearGradient>
</defs>
</svg>
