<svg width="11" height="10" viewBox="0 0 11 10" fill="none" xmlns="http://www.w3.org/2000/svg">
<path d="M3.79662 0.000854492H1.26554C0.913961 0.000854492 0.615179 0.133446 0.369057 0.398553C0.12305 0.66371 0 0.98566 0 1.36453V4.09177C0 4.47061 0.12298 4.79251 0.369057 5.05762C0.615156 5.3227 0.91403 5.45535 1.26554 5.45535H2.74198C2.91768 5.45535 3.06712 5.52167 3.19017 5.65421C3.31322 5.78667 3.37472 5.94775 3.37472 6.13723V6.36438C3.37472 6.86631 3.20991 7.29468 2.88038 7.64986C2.55082 8.00487 2.15318 8.18244 1.68733 8.18244H1.26554C1.15122 8.18244 1.05239 8.22754 0.96886 8.31745C0.885403 8.40735 0.84364 8.51392 0.84364 8.63703V9.54624C0.84364 9.66915 0.885403 9.77592 0.96886 9.86585C1.05246 9.95573 1.1512 10.0009 1.26554 10.0009H1.68735C2.14439 10.0009 2.58051 9.90483 2.99579 9.71313C3.41104 9.52141 3.77024 9.2621 4.07345 8.93538C4.3766 8.60862 4.6172 8.22165 4.79515 7.77417C4.97307 7.32672 5.06207 6.85681 5.06207 6.3644V1.36443C5.06207 0.98556 4.93902 0.663635 4.69299 0.398528C4.44696 0.133421 4.14811 0.000854492 3.79662 0.000854492Z" fill="#F6762C"/>
<path d="M10.599 0.398289C10.353 0.133195 10.0542 0.000610352 9.70262 0.000610352H7.17165C6.82007 0.000610352 6.52129 0.133195 6.27526 0.398289C6.02925 0.663458 5.90625 0.985368 5.90625 1.36422V4.09133C5.90625 4.47015 6.02925 4.79204 6.27526 5.05713C6.52129 5.3222 6.82009 5.45484 7.17165 5.45484H8.64807C8.82378 5.45484 8.97333 5.52115 9.09636 5.65369C9.21927 5.78622 9.28091 5.94721 9.28091 6.13669V6.36382C9.28091 6.86573 9.1161 7.29408 8.78649 7.64925C8.45696 8.00424 8.05942 8.1818 7.59352 8.1818H7.17165C7.05742 8.1818 6.95849 8.2269 6.87506 8.3168C6.79156 8.40669 6.74975 8.51326 6.74975 8.63637V9.54553C6.74975 9.66844 6.79156 9.7752 6.87506 9.86512C6.95847 9.955 7.05739 10.0001 7.17165 10.0001H7.59352C8.05049 10.0001 8.48658 9.9041 8.9019 9.71242C9.31708 9.5207 9.67623 9.2614 9.97947 8.93469C10.2827 8.60796 10.5234 8.2209 10.7013 7.77355C10.8792 7.32622 10.9682 6.85623 10.9682 6.36385V1.36412C10.9681 0.985268 10.8452 0.663359 10.599 0.398289Z" fill="#F6762C"/>
</svg>
