<svg width="35" height="21" viewBox="0 0 35 21" fill="none" xmlns="http://www.w3.org/2000/svg">
<path d="M34.6232 10.8464C34.6232 16.4338 30.1103 21.0005 24.4693 21.0005C18.882 21.0005 14.3154 16.4338 14.3154 10.8464C14.3154 5.25902 18.8283 0.692383 24.4156 0.692383C30.1103 0.692383 34.6232 5.25902 34.6232 10.8464Z" fill="#FFB600"/>
<path d="M24.4693 0.692383C30.0566 0.692383 34.6232 5.25902 34.6232 10.8464C34.6232 16.4338 30.1103 21.0005 24.4693 21.0005C18.882 21.0005 14.3154 16.4338 14.3154 10.8464" fill="#F7981D"/>
<path d="M24.4692 0.692383C30.0566 0.692383 34.6231 5.25902 34.6231 10.8464C34.6231 16.4338 30.1103 21.0005 24.4692 21.0005" fill="#FF8500"/>
<path d="M10.8239 0.692383C5.29022 0.746108 0.777344 5.25902 0.777344 10.8464C0.777344 16.4338 5.29022 21.0005 10.9313 21.0005C13.5638 21.0005 15.9277 19.9797 17.7543 18.368C18.1304 18.0456 18.4528 17.6695 18.7751 17.2935H16.6799C16.4112 16.9711 16.1426 16.595 15.9277 16.2727H19.5273C19.7422 15.9503 19.9571 15.5742 20.1182 15.1982H15.3367C15.1756 14.8758 15.0144 14.4997 14.9069 14.1237H20.4943C20.8167 13.1029 21.0316 12.0284 21.0316 10.9002C21.0316 10.148 20.9241 9.44958 20.8167 8.75115H14.5846C14.6383 8.37508 14.7458 8.05273 14.8532 7.67665H20.4406C20.3331 7.30058 20.172 6.9245 20.0108 6.60215H15.283C15.4442 6.22607 15.6591 5.90372 15.874 5.52765H19.4735C19.2586 5.15157 18.99 4.77549 18.6677 4.45314H16.6799C17.0022 4.07707 17.3246 3.75472 17.7006 3.43237C15.9277 1.76689 13.5101 0.799833 10.8776 0.799833C10.8776 0.692383 10.8776 0.692383 10.8239 0.692383Z" fill="#FF5050"/>
<path d="M0.777344 10.8459C0.777344 16.4334 5.29022 21 10.9313 21C13.5638 21 15.9277 19.9792 17.7543 18.3675C18.1304 18.0451 18.4528 17.669 18.7751 17.293H16.6799C16.4112 16.9706 16.1426 16.5945 15.9277 16.2722H19.5273C19.7422 15.9498 19.9571 15.5738 20.1182 15.1977H15.3367C15.1756 14.8753 15.0144 14.4992 14.9069 14.1232H20.4943C20.8167 13.1024 21.0316 12.0279 21.0316 10.8997C21.0316 10.1475 20.9241 9.44908 20.8167 8.75065H14.5846C14.6383 8.37457 14.7458 8.05222 14.8532 7.67614H20.4406C20.3331 7.30007 20.172 6.92399 20.0108 6.60164H15.283C15.4442 6.22556 15.6591 5.90321 15.874 5.52714H19.4735C19.2586 5.15106 18.99 4.77498 18.6677 4.45263H16.6799C17.0022 4.07655 17.3246 3.7542 17.7006 3.43185C15.9277 1.76637 13.5101 0.799316 10.8776 0.799316H10.8239" fill="#E52836"/>
<path d="M10.9317 21.001C13.5641 21.001 15.9279 19.9802 17.7545 18.3684C18.1306 18.0461 18.4529 17.67 18.7752 17.2939H16.68C16.4114 16.9716 16.1428 16.5955 15.9279 16.2732H19.5274C19.7423 15.9508 19.9572 15.5747 20.1183 15.1987H15.337C15.1758 14.8763 15.0146 14.5002 14.9072 14.1241H20.4944C20.8167 13.1034 21.0316 12.0289 21.0316 10.9006C21.0316 10.1485 20.9242 9.45005 20.8167 8.75163H14.5848C14.6386 8.37555 14.746 8.0532 14.8535 7.67712H20.4407C20.3332 7.30104 20.172 6.92497 20.0109 6.60262H15.2832C15.4444 6.22654 15.6593 5.90419 15.8742 5.52811H19.4736C19.2588 5.15204 18.9901 4.77596 18.6678 4.45361H16.68C17.0024 4.07753 17.3247 3.75518 17.7008 3.43283C15.9279 1.76735 13.5104 0.800293 10.8779 0.800293H10.8242" fill="#CB2026"/>
<path d="M14.5297 13.4228L14.6908 12.5097C14.6371 12.5097 14.5297 12.5634 14.4222 12.5634C14.0461 12.5634 13.9924 12.3485 14.0461 12.2411L14.3685 10.361H14.9594L15.1206 9.3404H14.5834L14.6908 8.6958H13.6164C13.6164 8.6958 12.9717 12.2411 12.9717 12.6708C12.9717 13.3154 13.3477 13.584 13.8312 13.584C14.1536 13.584 14.4222 13.4766 14.5297 13.4228Z" fill="white"/>
<path d="M14.9092 11.7041C14.9092 13.2084 15.9299 13.5845 16.7895 13.5845C17.5954 13.5845 17.9177 13.4233 17.9177 13.4233L18.1326 12.4026C18.1326 12.4026 17.5417 12.6712 17.0044 12.6712C15.8225 12.6712 16.0374 11.8116 16.0374 11.8116H18.2401C18.2401 11.8116 18.4012 11.1132 18.4012 10.8446C18.4012 10.1462 18.0252 9.28658 16.8432 9.28658C15.715 9.17914 14.9092 10.3611 14.9092 11.7041ZM16.7895 10.1462C17.3805 10.1462 17.273 10.8446 17.273 10.8983H16.0911C16.0911 10.8446 16.1986 10.1462 16.7895 10.1462Z" fill="white"/>
<path d="M23.6179 13.4233L23.8328 12.2415C23.8328 12.2415 23.2956 12.5101 22.9195 12.5101C22.1674 12.5101 21.845 11.9191 21.845 11.2745C21.845 9.98519 22.4897 9.28682 23.2418 9.28682C23.7791 9.28682 24.2089 9.60914 24.2089 9.60914L24.3701 8.48101C24.3701 8.48101 23.7254 8.2124 23.1344 8.2124C21.8987 8.2124 20.6631 9.28682 20.6631 11.3282C20.6631 12.6712 21.3078 13.5845 22.5972 13.5845C23.0269 13.5845 23.6179 13.4233 23.6179 13.4233Z" fill="white"/>
<path d="M8.62306 9.17969C7.87092 9.17969 7.33368 9.39456 7.33368 9.39456L7.17251 10.3077C7.17251 10.3077 7.65602 10.0929 8.35444 10.0929C8.73051 10.0929 9.05285 10.1466 9.05285 10.4689C9.05285 10.6838 8.99913 10.7375 8.99913 10.7375C8.99913 10.7375 8.67678 10.7375 8.51561 10.7375C7.6023 10.7375 6.58154 11.1135 6.58154 12.349C6.58154 13.3159 7.22623 13.5308 7.6023 13.5308C8.35444 13.5308 8.67678 13.0473 8.73051 13.0473L8.67678 13.477H9.64382L10.0736 10.5226C10.0736 9.2334 8.99913 9.17969 8.62306 9.17969ZM8.83795 11.597C8.83795 11.7581 8.73051 12.6176 8.08582 12.6176C7.76347 12.6176 7.65602 12.349 7.65602 12.1878C7.65602 11.9193 7.8172 11.5432 8.62306 11.5432C8.78423 11.597 8.83795 11.597 8.83795 11.597Z" fill="white"/>
<path d="M11.0942 13.5305C11.3628 13.5305 12.706 13.5842 12.706 12.1338C12.706 10.7908 11.4165 11.0594 11.4165 10.5222C11.4165 10.2536 11.6315 10.1462 12.0076 10.1462C12.1688 10.1462 12.7598 10.1999 12.7598 10.1999L12.921 9.23293C12.921 9.23293 12.5449 9.12549 11.9001 9.12549C11.0942 9.12549 10.2882 9.44781 10.2882 10.5222C10.2882 11.7578 11.6315 11.6503 11.6315 12.1338C11.6315 12.4561 11.2554 12.5098 10.9867 12.5098C10.5031 12.5098 10.0196 12.3487 10.0196 12.3487L9.8584 13.3156C9.91213 13.4231 10.1808 13.5305 11.0942 13.5305Z" fill="white"/>
<path d="M32.5339 8.31982L32.319 9.77029C32.319 9.77029 31.8892 9.23308 31.2983 9.23308C30.3313 9.23308 29.4717 10.4149 29.4717 11.8117C29.4717 12.6712 29.9015 13.5845 30.8148 13.5845C31.4594 13.5845 31.8355 13.1547 31.8355 13.1547L31.7818 13.5308H32.8563L33.6621 8.37355L32.5339 8.31982ZM32.0504 11.167C32.0504 11.758 31.7818 12.5101 31.1908 12.5101C30.8148 12.5101 30.5999 12.1877 30.5999 11.6505C30.5999 10.791 30.9759 10.2538 31.4594 10.2538C31.8355 10.2538 32.0504 10.5224 32.0504 11.167Z" fill="white"/>
<path d="M2.76975 13.4771L3.41443 9.60913L3.52187 13.4771H4.27399L5.67078 9.60913L5.07983 13.4771H6.208L7.06757 8.31982H5.29472L4.22027 11.4894L4.16654 8.31982H2.60859L1.74902 13.4771H2.76975Z" fill="white"/>
<path d="M19.4245 13.477C19.7468 11.7044 19.8005 10.254 20.5526 10.5226C20.6601 9.82428 20.8212 9.55569 20.9286 9.28711C20.9286 9.28711 20.8749 9.28711 20.7138 9.28711C20.2303 9.28711 19.8543 9.93171 19.8543 9.93171L19.9617 9.34083H18.941L18.2427 13.5308H19.4245V13.477Z" fill="white"/>
<path d="M26.0879 9.17969C25.3358 9.17969 24.7985 9.39456 24.7985 9.39456L24.6374 10.3077C24.6374 10.3077 25.1209 10.0929 25.8193 10.0929C26.1954 10.0929 26.5177 10.1466 26.5177 10.4689C26.5177 10.6838 26.464 10.7375 26.464 10.7375C26.464 10.7375 26.1416 10.7375 25.9805 10.7375C25.0672 10.7375 24.0464 11.1135 24.0464 12.349C24.0464 13.3159 24.6911 13.5308 25.0672 13.5308C25.8193 13.5308 26.1416 13.0473 26.1954 13.0473L26.1416 13.477H27.1087L27.5385 10.5226C27.5922 9.2334 26.464 9.17969 26.0879 9.17969ZM26.3565 11.597C26.3565 11.7581 26.2491 12.6176 25.6044 12.6176C25.2821 12.6176 25.1746 12.349 25.1746 12.1878C25.1746 11.9193 25.3358 11.5432 26.1416 11.5432C26.3028 11.597 26.3028 11.597 26.3565 11.597Z" fill="white"/>
<path d="M28.4476 13.477C28.77 11.7044 28.8237 10.254 29.5759 10.5226C29.6833 9.82428 29.8445 9.55569 29.952 9.28711C29.952 9.28711 29.8982 9.28711 29.7371 9.28711C29.2535 9.28711 28.8774 9.93171 28.8774 9.93171L28.9849 9.34083H27.9641L27.2656 13.5308H28.4476V13.477Z" fill="white"/>
<path d="M12.8667 12.6708C12.8667 13.3154 13.2428 13.584 13.7263 13.584C14.1024 13.584 14.4247 13.4766 14.5321 13.4228L14.6933 12.5097C14.6396 12.5097 14.5321 12.5634 14.4247 12.5634C14.0486 12.5634 13.9949 12.3485 14.0486 12.2411L14.371 10.361H14.9619L15.1231 9.3404H14.5859L14.6933 8.6958" fill="#DCE5E5"/>
<path d="M15.4443 11.7041C15.4443 13.2084 15.9279 13.5845 16.7874 13.5845C17.5933 13.5845 17.9157 13.4233 17.9157 13.4233L18.1305 12.4026C18.1305 12.4026 17.5396 12.6712 17.0023 12.6712C15.8204 12.6712 16.0353 11.8116 16.0353 11.8116H18.238C18.238 11.8116 18.3992 11.1132 18.3992 10.8446C18.3992 10.1462 18.0231 9.28658 16.8412 9.28658C15.713 9.17914 15.4443 10.3611 15.4443 11.7041ZM16.7874 10.1462C17.3784 10.1462 17.4859 10.8446 17.4859 10.8983H16.089C16.089 10.8446 16.1965 10.1462 16.7874 10.1462Z" fill="#DCE5E5"/>
<path d="M23.6158 13.4233L23.8307 12.2415C23.8307 12.2415 23.2935 12.5101 22.9174 12.5101C22.1653 12.5101 21.8429 11.9191 21.8429 11.2745C21.8429 9.98519 22.4876 9.28682 23.2397 9.28682C23.777 9.28682 24.2067 9.60914 24.2067 9.60914L24.3679 8.48101C24.3679 8.48101 23.7232 8.2124 23.1323 8.2124C21.8966 8.2124 21.1982 9.28682 21.1982 11.3282C21.1982 12.6712 21.3057 13.5845 22.595 13.5845C23.0248 13.5845 23.6158 13.4233 23.6158 13.4233Z" fill="#DCE5E5"/>
<path d="M7.17251 10.3616C7.17251 10.3616 7.65602 10.1467 8.35444 10.1467C8.73051 10.1467 9.05285 10.2004 9.05285 10.5227C9.05285 10.7376 8.99913 10.7914 8.99913 10.7914C8.99913 10.7914 8.67678 10.7914 8.51561 10.7914C7.6023 10.7914 6.58154 11.1674 6.58154 12.4031C6.58154 13.3701 7.22623 13.585 7.6023 13.585C8.35444 13.585 8.67678 13.1015 8.73051 13.1015L8.67678 13.5312H9.64382L10.0736 10.5765C10.0736 9.34083 8.99913 9.28711 8.56933 9.28711L7.17251 10.3616ZM9.3752 11.5972C9.3752 11.7584 8.73051 12.6179 8.08582 12.6179C7.76347 12.6179 7.65602 12.3493 7.65602 12.1882C7.65602 11.9195 7.8172 11.5435 8.62306 11.5435C8.78423 11.5972 9.3752 11.5972 9.3752 11.5972Z" fill="#DCE5E5"/>
<path d="M9.91309 13.4231C9.91309 13.4231 10.2354 13.5305 11.1487 13.5305C11.4173 13.5305 12.7603 13.5842 12.7603 12.1338C12.7603 10.7908 11.471 11.0594 11.471 10.5222C11.471 10.2536 11.6859 10.1462 12.0619 10.1462C12.2231 10.1462 12.814 10.1999 12.814 10.1999L12.9752 9.23293C12.9752 9.23293 12.5991 9.12549 11.9545 9.12549C11.1487 9.12549 10.8801 9.44781 10.8801 10.5222C10.8801 11.7578 11.6859 11.6503 11.6859 12.1338C11.6859 12.4561 11.3098 12.5098 11.0412 12.5098" fill="#DCE5E5"/>
<path d="M32.3162 9.77028C32.3162 9.77028 31.8865 9.23307 31.2956 9.23307C30.3286 9.23307 30.0063 10.4149 30.0063 11.8117C30.0063 12.6712 29.8989 13.5845 30.8121 13.5845C31.4567 13.5845 31.8328 13.1547 31.8328 13.1547L31.779 13.5308H32.8534L33.6592 8.37354L32.3162 9.77028ZM32.2625 11.167C32.2625 11.758 31.779 12.5101 31.1881 12.5101C30.8121 12.5101 30.5972 12.1877 30.5972 11.6505C30.5972 10.791 30.9733 10.2538 31.4567 10.2538C31.8328 10.2538 32.2625 10.5224 32.2625 11.167Z" fill="#DCE5E5"/>
<path d="M2.76975 13.4771L3.41443 9.60913L3.52187 13.4771H4.27399L5.67078 9.60913L5.07983 13.4771H6.208L7.06757 8.31982H5.7245L4.22027 11.4894L4.16654 8.31982H3.57559L1.74902 13.4771H2.76975Z" fill="#DCE5E5"/>
<path d="M18.2954 13.4771H19.4237C19.746 11.7044 19.7998 10.254 20.5519 10.5226C20.6594 9.82428 20.8206 9.5557 20.928 9.28711C20.928 9.28711 20.8743 9.28711 20.7131 9.28711C20.2296 9.28711 19.8535 9.93172 19.8535 9.93172L19.961 9.34083" fill="#DCE5E5"/>
<path d="M24.6374 10.3616C24.6374 10.3616 25.1209 10.1467 25.8193 10.1467C26.1953 10.1467 26.5177 10.2004 26.5177 10.5227C26.5177 10.7376 26.464 10.7914 26.464 10.7914C26.464 10.7914 26.1416 10.7914 25.9805 10.7914C25.0671 10.7914 24.0464 11.1674 24.0464 12.4031C24.0464 13.3701 24.6911 13.585 25.0671 13.585C25.8193 13.585 26.1416 13.1015 26.1954 13.1015L26.1416 13.5312H27.1087L27.5385 10.5765C27.5385 9.34083 26.464 9.28711 26.0342 9.28711L24.6374 10.3616ZM26.84 11.5972C26.84 11.7584 26.1953 12.6179 25.5507 12.6179C25.2283 12.6179 25.1209 12.3493 25.1209 12.1882C25.1209 11.9195 25.282 11.5435 26.0879 11.5435C26.3028 11.5972 26.84 11.5972 26.84 11.5972Z" fill="#DCE5E5"/>
<path d="M27.3232 13.4771H28.4514C28.7737 11.7044 28.8274 10.254 29.5795 10.5226C29.6869 9.82428 29.8481 9.5557 29.9555 9.28711C29.9555 9.28711 29.9018 9.28711 29.7406 9.28711C29.2572 9.28711 28.8811 9.93172 28.8811 9.93172L28.9886 9.34083" fill="#DCE5E5"/>
</svg>
