<svg width="11" height="17" viewBox="0 0 11 17" fill="none" xmlns="http://www.w3.org/2000/svg">
<path d="M6.38382 4.12451C7.25523 3.76271 7.72376 2.92032 7.51184 2.09651C7.30005 1.2727 6.46445 0.6875 5.49994 0.6875C4.53557 0.6875 3.69997 1.2727 3.48805 2.09651C3.27626 2.92032 3.74479 3.76271 4.6162 4.12451H6.38382Z" fill="#F98AAB"/>
<path d="M3.1623 4.8125C3.08643 4.8125 3.01378 4.7794 2.9618 4.72092C1.81967 3.44293 1.75828 1.46537 2.8186 0.110841C2.88036 0.0280229 2.97974 -0.0130591 3.07826 0.0036877C3.17678 0.0204345 3.25896 0.0922625 3.293 0.191435C3.32703 0.290607 3.30773 0.401424 3.24225 0.481102C2.35843 1.60994 2.41016 3.25832 3.36268 4.32279C3.43781 4.40718 3.45835 4.53081 3.41479 4.63731C3.37122 4.74368 3.27196 4.8125 3.1623 4.8125Z" fill="#F98AAB"/>
<path d="M8.26694 3.4375C8.16132 3.4375 8.06348 3.39302 8.00849 3.32017C7.9535 3.2472 7.94927 3.15647 7.99744 3.08053C8.54982 2.21095 8.4079 1.15869 7.63664 0.405891C7.56459 0.338669 7.54317 0.245176 7.58069 0.161508C7.61836 0.077839 7.70896 0.0172399 7.81759 0.0031112C7.92621 -0.0110175 8.03578 0.023642 8.10388 0.0935131C9.02947 0.997201 9.19977 2.26018 8.53699 3.30416C8.48514 3.38617 8.38075 3.43761 8.26694 3.4375Z" fill="#F98AAB"/>
<path d="M10.9998 7.86428V12.2981C10.9998 12.2981 10.9998 13.8077 10.0812 14.6817C9.9771 14.7853 9.91938 14.9296 9.92217 15.0794V15.9392C9.92132 16.2482 9.68059 16.4985 9.38335 16.4995H5.07268C4.77543 16.4985 4.53471 16.2482 4.53386 15.9392V15.8356C4.53434 15.3866 4.36044 14.9563 4.05155 14.6425C3.53153 14.1159 2.7287 13.2056 2.37846 12.2981C1.83964 10.8976 0.762005 8.93695 0.223186 8.37679C-0.315633 7.81662 0.223186 7.25646 0.762005 7.25646C1.30082 7.25646 2.37846 8.37679 2.91728 9.2171C3.08876 9.48754 3.28947 9.73654 3.5154 9.95932C3.64953 10.0889 3.83787 10.1386 4.01517 10.0909C4.19247 10.0433 4.33412 9.90498 4.391 9.72406C4.49359 9.37873 4.54186 9.01827 4.53386 8.65693V2.21483C4.53216 1.85879 4.74888 1.54107 5.07268 1.42495C5.15866 1.39104 5.24998 1.37402 5.34202 1.37452C5.78843 1.37452 6.15031 1.75074 6.15031 2.21483V5.57596C6.14862 5.21979 6.36533 4.90219 6.68913 4.78608C6.77524 4.75216 6.86656 4.73501 6.9586 4.73565C7.40489 4.73565 7.76677 5.11186 7.76677 5.57596V6.41614C7.76677 6.19336 7.85215 5.97966 8.00386 5.82244C8.08827 5.7333 8.19159 5.6661 8.30559 5.62639C8.39169 5.59247 8.48301 5.57533 8.57506 5.57596C9.02147 5.57596 9.38335 5.95218 9.38335 6.41614V7.81662C9.38335 7.59384 9.4686 7.38014 9.62044 7.22292C9.70472 7.13378 9.80817 7.06658 9.92217 7.02674C10.0272 6.98665 10.1392 6.97038 10.2508 6.97921C10.6836 7.02725 11.0091 7.41178 10.9998 7.86428Z" fill="#F98AAB"/>
<path d="M5.51551 1.3921C5.42069 1.3916 5.32662 1.40847 5.23805 1.44207C4.90451 1.55712 4.68127 1.87193 4.68302 2.22471V8.60772C4.69126 8.96575 4.64154 9.3229 4.53586 9.66506C4.49213 9.7936 4.40344 9.90204 4.28613 9.97037C4.43042 10.0551 4.60519 10.0698 4.76159 10.0105C4.91812 9.95113 5.03917 9.82409 5.09089 9.66506C5.19658 9.3229 5.2463 8.96575 5.23805 8.60772V2.22471C5.2363 1.87193 5.45954 1.55712 5.79309 1.44207C5.70439 1.40847 5.61033 1.3916 5.51551 1.3921Z" fill="#F8EDF0"/>
<path d="M6.90363 4.77258C6.57011 4.88761 6.34689 5.20222 6.34864 5.55505V8.0522C6.34864 8.20544 6.47293 8.32959 6.6262 8.32959C6.77934 8.32959 6.90363 8.20544 6.90363 8.0522V5.55505C6.90201 5.20222 7.1251 4.88761 7.45862 4.77258C7.27962 4.70601 7.08263 4.70601 6.90363 4.77258Z" fill="#F8EDF0"/>
<path d="M8.57165 5.60514C8.45422 5.6445 8.34778 5.71112 8.26083 5.79948C8.10455 5.95533 8.0166 6.16716 8.0166 6.388V8.05397C8.0166 8.20731 8.1409 8.33154 8.29419 8.33154C8.44748 8.33154 8.57165 8.20731 8.57165 8.05397V6.388C8.57003 6.03506 8.79327 5.72024 9.12683 5.60514C8.94781 5.53852 8.7508 5.53852 8.57165 5.60514Z" fill="#F8EDF0"/>
<path d="M10.5131 6.94289C10.4184 6.94226 10.3243 6.95913 10.2357 6.99274C10.1183 7.03223 10.0117 7.09883 9.92488 7.18717C9.76848 7.34299 9.68066 7.55479 9.68066 7.77558V8.33075C9.68066 8.48407 9.80484 8.6084 9.95811 8.6084C10.1114 8.6084 10.2357 8.48407 10.2357 8.33075V7.77558C10.2339 7.42271 10.4572 7.10795 10.7907 6.99274C10.702 6.95913 10.608 6.94226 10.5131 6.94289Z" fill="#F8EDF0"/>
<path d="M9.96883 9.625C9.77896 9.625 9.625 9.74044 9.625 9.88279V11.4292C9.625 11.5716 9.77896 11.687 9.96883 11.687C10.1587 11.687 10.3125 11.5716 10.3125 11.4292V9.88279C10.3125 9.74044 10.1587 9.625 9.96883 9.625Z" fill="#F8EDF0"/>
<path d="M10.09 12.375C9.96697 12.3779 9.86566 12.5214 9.85601 12.7061C9.83895 12.8807 9.78183 13.0408 9.6947 13.1588C9.63531 13.2451 9.61158 13.373 9.63244 13.4931C9.65329 13.6134 9.71566 13.7074 9.79539 13.7388C9.87522 13.7702 9.96009 13.7345 10.0174 13.645C10.1911 13.4029 10.2967 13.0697 10.3125 12.714C10.3123 12.5284 10.2132 12.3775 10.09 12.375Z" fill="#F8EDF0"/>
<path d="M5.95834 15.125H5.72922C5.60264 15.125 5.5 15.2788 5.5 15.4687C5.5 15.6585 5.60264 15.8125 5.72922 15.8125H5.95834C6.08492 15.8125 6.18756 15.6585 6.18756 15.4687C6.18756 15.2788 6.08492 15.125 5.95834 15.125Z" fill="#F8EDF0"/>
<path d="M8.70839 15.125H7.10421C6.97764 15.125 6.875 15.2788 6.875 15.4687C6.875 15.6585 6.97764 15.8125 7.10421 15.8125H8.70839C8.83496 15.8125 8.9375 15.6585 8.9375 15.4687C8.9375 15.2788 8.83496 15.125 8.70839 15.125Z" fill="#F8EDF0"/>
</svg>
