<svg width="32" height="32" viewBox="0 0 32 32" fill="none" xmlns="http://www.w3.org/2000/svg">
<path d="M16 13.7328C16.195 12.8164 17.2892 8.63631 20.485 8.63631C22.335 8.63631 24.3333 9.90531 24.3333 12.7297C24.3333 15.9263 21.3108 19.6597 16 23.0625C10.6892 19.6597 7.66667 15.9263 7.66667 12.7297C7.66667 9.87913 9.64083 8.63467 11.4808 8.63467C14.75 8.63467 15.7683 12.8287 16 13.7328ZM6 12.7297C6 16.0581 8.55 20.4869 16 25C23.45 20.4869 26 16.0581 26 12.7297C26 6.2153 17.96 5.34311 16 9.67213C14.0517 5.36684 6 6.17848 6 12.7297Z" fill="#878787"/>
</svg>
