<svg width="24" height="24" viewBox="0 0 24 24" fill="none" xmlns="http://www.w3.org/2000/svg">
<path d="M15.96 23.52H8.04002C6.65078 23.52 5.52002 22.3892 5.52002 21V8.75996C5.52002 7.37036 6.65078 6.23996 8.04002 6.23996H15.96C17.3493 6.23996 18.48 7.37036 18.48 8.75996V21C18.48 22.3892 17.3493 23.52 15.96 23.52ZM8.04002 6.95996C7.0475 6.95996 6.24002 7.76744 6.24002 8.75996V21C6.24002 21.9925 7.0475 22.8 8.04002 22.8H15.96C16.9525 22.8 17.76 21.9925 17.76 21V8.75996C17.76 7.76744 16.9525 6.95996 15.96 6.95996H8.04002Z" fill="black"/>
<path d="M8.39998 6.96C8.2009 6.96 8.03998 6.79872 8.03998 6.6V5.52C8.03998 5.32128 8.2009 5.16 8.39998 5.16C8.59906 5.16 8.75998 5.32128 8.75998 5.52V6.6C8.75998 6.79872 8.59906 6.96 8.39998 6.96Z" fill="black"/>
<path d="M8.39998 5.88C8.2009 5.88 8.03998 5.71872 8.03998 5.52C8.03998 4.92456 8.52454 4.44 9.11998 4.44C9.31906 4.44 9.47998 4.60128 9.47998 4.8C9.47998 4.99872 9.31906 5.16 9.11998 5.16C8.92126 5.16 8.75998 5.32164 8.75998 5.52C8.75998 5.71872 8.59906 5.88 8.39998 5.88Z" fill="black"/>
<path d="M15.6 6.96C15.4009 6.96 15.24 6.79872 15.24 6.6V5.52C15.24 5.32128 15.4009 5.16 15.6 5.16C15.7991 5.16 15.96 5.32128 15.96 5.52V6.6C15.96 6.79872 15.7991 6.96 15.6 6.96Z" fill="black"/>
<path d="M15.6 5.88C15.4009 5.88 15.24 5.71872 15.24 5.52C15.24 5.32164 15.0787 5.16 14.88 5.16C14.6809 5.16 14.52 4.99872 14.52 4.8C14.52 4.60128 14.6809 4.44 14.88 4.44C15.4755 4.44 15.96 4.92456 15.96 5.52C15.96 5.71872 15.7991 5.88 15.6 5.88Z" fill="black"/>
<path d="M14.88 5.16H9.11998C8.9209 5.16 8.75998 4.99872 8.75998 4.8C8.75998 4.60128 8.9209 4.44 9.11998 4.44H14.88C15.0791 4.44 15.24 4.60128 15.24 4.8C15.24 4.99872 15.0791 5.16 14.88 5.16Z" fill="black"/>
<path d="M9.84001 5.88C9.64093 5.88 9.48001 5.71872 9.48001 5.52V4.8C9.48001 4.60128 9.64093 4.44 9.84001 4.44C10.0391 4.44 10.2 4.60128 10.2 4.8V5.52C10.2 5.71872 10.0391 5.88 9.84001 5.88Z" fill="black"/>
<path d="M11.28 5.88C11.0809 5.88 10.92 5.71872 10.92 5.52V4.8C10.92 4.60128 11.0809 4.44 11.28 4.44C11.4791 4.44 11.64 4.60128 11.64 4.8V5.52C11.64 5.71872 11.4791 5.88 11.28 5.88Z" fill="black"/>
<path d="M12.72 5.88C12.5209 5.88 12.36 5.71872 12.36 5.52V4.8C12.36 4.60128 12.5209 4.44 12.72 4.44C12.9191 4.44 13.08 4.60128 13.08 4.8V5.52C13.08 5.71872 12.9191 5.88 12.72 5.88Z" fill="black"/>
<path d="M14.16 5.88C13.9609 5.88 13.8 5.71872 13.8 5.52V4.8C13.8 4.60128 13.9609 4.44 14.16 4.44C14.3591 4.44 14.52 4.60128 14.52 4.8V5.52C14.52 5.71872 14.3591 5.88 14.16 5.88Z" fill="black"/>
<path d="M10.92 5.15997C10.7209 5.15997 10.56 4.99869 10.56 4.79997V1.91997C10.56 1.72125 10.7209 1.55997 10.92 1.55997C11.119 1.55997 11.28 1.72125 11.28 1.91997V4.79997C11.28 4.99869 11.119 5.15997 10.92 5.15997Z" fill="black"/>
<path d="M13.08 5.19021C12.8809 5.19021 12.72 5.02893 12.72 4.83021V1.91997C12.72 1.72125 12.8809 1.55997 13.08 1.55997C13.2791 1.55997 13.44 1.72125 13.44 1.91997V4.83021C13.44 5.02893 13.2791 5.19021 13.08 5.19021Z" fill="black"/>
<path d="M15.6 2.27997H10.56C10.3609 2.27997 10.2 2.11869 10.2 1.91997C10.2 1.72125 10.3609 1.55997 10.56 1.55997H15.6C15.7991 1.55997 15.96 1.72125 15.96 1.91997C15.96 2.11869 15.7991 2.27997 15.6 2.27997Z" fill="black"/>
<path d="M15.6 5.87997C15.4009 5.87997 15.24 5.71869 15.24 5.51997C15.24 5.32125 15.4009 5.15997 15.6 5.15997C16.3942 5.15997 17.04 4.51413 17.04 3.71997C17.04 2.92581 16.3942 2.27997 15.6 2.27997C15.4009 2.27997 15.24 2.11869 15.24 1.91997C15.24 1.72125 15.4009 1.55997 15.6 1.55997C16.7912 1.55997 17.76 2.52873 17.76 3.71997C17.76 4.91121 16.7912 5.87997 15.6 5.87997Z" fill="black"/>
<path d="M13.08 2.28001C12.8809 2.28001 12.72 2.11873 12.72 1.92001C12.72 1.52293 12.397 1.20001 12 1.20001C11.6029 1.20001 11.28 1.52293 11.28 1.92001C11.28 2.11873 11.119 2.28001 10.92 2.28001C10.7209 2.28001 10.56 2.11873 10.56 1.92001C10.56 1.12585 11.2058 0.480011 12 0.480011C12.7941 0.480011 13.44 1.12585 13.44 1.92001C13.44 2.11873 13.279 2.28001 13.08 2.28001Z" fill="black"/>
<path d="M15.96 19.56H8.03999C7.84091 19.56 7.67999 19.3991 7.67999 19.2V10.2C7.67999 10.0013 7.84091 9.84 8.03999 9.84H15.96C16.1591 9.84 16.32 10.0013 16.32 10.2V19.2C16.32 19.3991 16.1591 19.56 15.96 19.56ZM8.39999 18.84H15.6V10.56H8.39999V18.84Z" fill="black"/>
<path d="M12 15.24C11.2058 15.24 10.56 14.5941 10.56 13.8C10.56 13.0058 11.2058 12.36 12 12.36C12.7941 12.36 13.44 13.0058 13.44 13.8C13.44 14.5941 12.7941 15.24 12 15.24ZM12 13.08C11.6029 13.08 11.28 13.4029 11.28 13.8C11.28 14.1971 11.6029 14.52 12 14.52C12.397 14.52 12.72 14.1971 12.72 13.8C12.72 13.4029 12.397 13.08 12 13.08Z" fill="black"/>
<path d="M13.8 16.68H10.2C10.0009 16.68 9.83997 16.519 9.83997 16.32C9.83997 16.1209 10.0009 15.96 10.2 15.96H13.8C13.999 15.96 14.16 16.1209 14.16 16.32C14.16 16.519 13.999 16.68 13.8 16.68Z" fill="black"/>
<path d="M12.72 17.76H11.28C11.0809 17.76 10.92 17.5991 10.92 17.4C10.92 17.2009 11.0809 17.04 11.28 17.04H12.72C12.9191 17.04 13.08 17.2009 13.08 17.4C13.08 17.5991 12.9191 17.76 12.72 17.76Z" fill="black"/>
</svg>
