<svg width="24" height="24" viewBox="0 0 24 24" fill="none" xmlns="http://www.w3.org/2000/svg">
<path d="M4.77808 14.3817C4.81608 14.3817 4.85468 14.3746 4.89179 14.3592L5.72933 14.0124C5.82018 14.1804 5.92646 14.339 6.04641 14.4857L5.40423 15.1272C5.28814 15.243 5.28814 15.431 5.40423 15.547C5.46212 15.6049 5.53813 15.634 5.61413 15.634C5.69014 15.634 5.76614 15.6049 5.82404 15.547L6.46622 14.9055C6.61288 15.0254 6.77083 15.132 6.93917 15.2225L6.5918 16.0604C6.52916 16.2118 6.60101 16.3858 6.75242 16.4484C6.78953 16.4639 6.82813 16.471 6.86613 16.471C6.98252 16.471 7.09326 16.4021 7.14046 16.2878L7.48753 15.45C7.66774 15.5046 7.85449 15.5429 8.04747 15.5622V16.4677C8.04747 16.6319 8.18018 16.7646 8.34437 16.7646C8.50855 16.7646 8.64126 16.6319 8.64126 16.4677V15.5622C8.83335 15.5432 9.0201 15.5046 9.20031 15.4503L9.54708 16.2872C9.59429 16.4015 9.70503 16.4704 9.82141 16.4704C9.85941 16.4704 9.89801 16.4633 9.93512 16.4478C10.0865 16.3852 10.1584 16.2112 10.0957 16.0598L9.74897 15.2228C9.91701 15.132 10.0756 15.0257 10.2222 14.9058L10.8635 15.5468C10.9214 15.6046 10.9974 15.6337 11.0734 15.6337C11.1494 15.6337 11.2254 15.6046 11.2833 15.5468C11.3994 15.4307 11.3994 15.243 11.2833 15.1269L10.642 14.486C10.7623 14.3393 10.8686 14.181 10.9591 14.0127L11.7961 14.3592C11.8332 14.3746 11.8718 14.3817 11.9098 14.3817C12.0261 14.3817 12.1369 14.3129 12.1841 14.1986C12.2467 14.0468 12.1749 13.8732 12.0235 13.8105L11.1865 13.464C11.2682 13.1927 11.3136 12.9056 11.3136 12.6081C11.3136 12.4439 11.1809 12.3112 11.0167 12.3112C10.8525 12.3112 10.7198 12.4439 10.7198 12.6081C10.7198 12.9299 10.6548 13.2366 10.5384 13.5169V13.5172C10.1809 14.3767 9.33302 14.983 8.34585 14.9832L8.34466 14.983L8.34318 14.9832C7.03417 14.9827 5.96922 13.9174 5.96922 12.6081C5.96922 12.4439 5.83651 12.3112 5.67232 12.3112C5.50814 12.3112 5.37543 12.4439 5.37543 12.6081C5.37543 12.9056 5.42056 13.1927 5.5025 13.4637L4.66467 13.8105C4.51325 13.8732 4.4414 14.0468 4.50405 14.1986C4.55125 14.3126 4.6617 14.3817 4.77808 14.3817Z" fill="black"/>
<path d="M13.3921 14.3817C13.4302 14.3817 13.4687 14.3746 13.5059 14.3592L14.3434 14.0124C14.4342 14.1804 14.5405 14.339 14.6605 14.4857L14.0183 15.1272C13.9022 15.243 13.9022 15.431 14.0183 15.547C14.0762 15.6049 14.1522 15.634 14.2282 15.634C14.3042 15.634 14.3802 15.6049 14.4381 15.547L15.0803 14.9055C15.227 15.0254 15.3849 15.132 15.5532 15.2225L15.2059 16.0604C15.1432 16.2118 15.2151 16.3858 15.3665 16.4484C15.4036 16.4639 15.4422 16.471 15.4802 16.471C15.5966 16.471 15.7073 16.4021 15.7545 16.2878L16.1016 15.45C16.2818 15.5046 16.4686 15.5429 16.6615 15.5622V16.4677C16.6615 16.6319 16.7943 16.7646 16.9584 16.7646C17.1226 16.7646 17.2553 16.6319 17.2553 16.4677V15.5622C17.4474 15.5432 17.6342 15.5046 17.8144 15.4503L18.1612 16.2872C18.2084 16.4015 18.3191 16.4704 18.4352 16.4704C18.4732 16.4704 18.5118 16.4633 18.5489 16.4478C18.7003 16.3852 18.7722 16.2112 18.7095 16.0598L18.3627 15.2228C18.5308 15.132 18.6893 15.0257 18.836 14.9058L19.4773 15.5468C19.5352 15.6046 19.6112 15.6337 19.6872 15.6337C19.7632 15.6337 19.8392 15.6046 19.8971 15.5468C20.0132 15.4307 20.0132 15.243 19.8971 15.1269L19.2558 14.486C19.376 14.3393 19.4823 14.181 19.5729 14.0127L20.4098 14.3592C20.4469 14.3746 20.4855 14.3817 20.5235 14.3817C20.6399 14.3817 20.7507 14.3129 20.7979 14.1986C20.8605 14.0468 20.7887 13.8732 20.6372 13.8105L19.8003 13.464C19.8819 13.1927 19.9274 12.9056 19.9274 12.6081C19.9274 12.4439 19.7947 12.3112 19.6305 12.3112C19.4663 12.3112 19.3336 12.4439 19.3336 12.6081C19.3336 12.9299 19.2686 13.2366 19.1522 13.5169V13.5172C18.7947 14.3767 17.9468 14.983 16.9596 14.9832L16.9584 14.983L16.9572 14.9832C15.6482 14.9827 14.5833 13.9174 14.5833 12.6081C14.5833 12.4439 14.4506 12.3112 14.2864 12.3112C14.1222 12.3112 13.9895 12.4439 13.9895 12.6081C13.9895 12.9056 14.0346 13.1927 14.1166 13.4637L13.2787 13.8105C13.1273 13.8732 13.0555 14.0468 13.1181 14.1986C13.165 14.3126 13.2755 14.3817 13.3921 14.3817Z" fill="black"/>
<path d="M3.89067 20.034H21.1093C21.6004 20.034 22 19.6344 22 19.1433V11.7171C22 11.4888 21.9112 11.2825 21.7696 11.1248C21.9115 10.9672 22 10.7605 22 10.5325V4.89065C22 4.39959 21.6004 3.99997 21.1093 3.99997H3.89067C3.3996 3.99997 2.99998 4.39959 2.99998 4.89065V10.5325C2.99998 10.7608 3.08876 10.9672 3.23037 11.1248C3.08846 11.2825 2.99998 11.4891 2.99998 11.7171V19.1433C2.99998 19.6344 3.3996 20.034 3.89067 20.034ZM3.59377 4.89065C3.59377 4.72676 3.72678 4.59376 3.89067 4.59376H21.1093C21.2732 4.59376 21.4062 4.72676 21.4062 4.89065V10.5325C21.4062 10.6928 21.2779 10.8223 21.1188 10.8273C21.1155 10.8273 21.1126 10.8264 21.1093 10.8264H3.89067C3.8874 10.8264 3.88443 10.8273 3.88116 10.8273C3.72203 10.8223 3.59377 10.6928 3.59377 10.5325V4.89065ZM3.59377 11.7171C3.59377 11.5568 3.72203 11.4274 3.88116 11.4223C3.88413 11.4223 3.8874 11.4232 3.89067 11.4232H21.1093C21.1126 11.4232 21.1155 11.4223 21.1188 11.4223C21.2779 11.4277 21.4062 11.5568 21.4062 11.7171V17.359C21.4062 17.5229 21.2732 17.6559 21.1093 17.6559H3.89067C3.72678 17.6559 3.59377 17.5229 3.59377 17.359V11.7171ZM3.59377 18.195C3.687 18.2283 3.78586 18.25 3.89067 18.25H21.1093C21.2141 18.25 21.313 18.2286 21.4062 18.195V19.1433C21.4062 19.3072 21.2732 19.4402 21.1093 19.4402H3.89067C3.72678 19.4402 3.59377 19.3072 3.59377 19.1433V18.195Z" fill="black"/>
<path d="M12.4958 7.8581C13.1508 7.8581 13.6834 7.32547 13.6834 6.67053C13.6834 6.01558 13.1508 5.48295 12.4958 5.48295C11.8409 5.48295 11.3083 6.01558 11.3083 6.67053C11.3083 7.32547 11.8409 7.8581 12.4958 7.8581ZM12.4958 6.07674C12.8233 6.07674 13.0896 6.34305 13.0896 6.67053C13.0896 6.998 12.8233 7.26431 12.4958 7.26431C12.1684 7.26431 11.902 6.998 11.902 6.67053C11.902 6.34305 12.1687 6.07674 12.4958 6.07674Z" fill="black"/>
<path d="M8.9331 8.74848H16.0586C16.2227 8.74848 16.3554 8.61577 16.3554 8.45159C16.3554 8.28741 16.2227 8.1547 16.0586 8.1547H8.9331C8.76892 8.1547 8.63621 8.28741 8.63621 8.45159C8.63621 8.61577 8.76922 8.74848 8.9331 8.74848Z" fill="black"/>
<path d="M14.2819 9.04538H10.71C10.5458 9.04538 10.4131 9.17809 10.4131 9.34227C10.4131 9.50645 10.5458 9.63917 10.71 9.63917H14.2819C14.4461 9.63917 14.5788 9.50645 14.5788 9.34227C14.5788 9.17809 14.4461 9.04538 14.2819 9.04538Z" fill="black"/>
</svg>
