<svg width="24" height="24" viewBox="0 0 24 24" fill="none" xmlns="http://www.w3.org/2000/svg">
<path d="M15.2918 10.4521C16.5044 9.32588 16.6832 7.4653 15.7094 6.12421C14.5654 4.55196 12.3733 4.32717 10.931 5.50762C10.7822 5.6303 10.7613 5.8524 10.8847 6.00079C11.008 6.14918 11.2274 6.17088 11.3762 6.0482C12.5329 5.09957 14.2522 5.31375 15.1421 6.53535C15.9085 7.59012 15.7659 9.05191 14.8118 9.94075C13.7047 10.9679 11.9788 10.8474 11.0253 9.69414C9.51821 7.87104 9.77914 5.17028 11.6077 3.67102C13.4326 2.17248 16.1477 2.4346 17.6547 4.25771C19.3302 6.28646 18.7045 8.94348 16.6797 10.6046L10.9624 15.29L11.4076 15.8306L17.1285 11.1445C19.597 9.11957 20.0008 5.99827 18.1969 3.81481C16.4432 1.69492 13.285 1.38658 11.1589 3.13116C9.03268 4.87578 8.73013 8.02074 10.4838 10.1406C11.6697 11.5751 13.8681 11.7764 15.2918 10.4521Z" fill="black"/>
<path d="M6.80196 21.0536C6.86649 21.1327 6.99116 21.1442 7.07054 21.08L7.60917 20.6378C7.69138 20.5693 7.70351 20.4487 7.63469 20.3667L7.43179 20.1201L10.7911 17.3485L10.9983 17.5979C11.0671 17.6799 11.1846 17.6928 11.2668 17.6243L11.8055 17.1821C11.8884 17.1172 11.9005 16.9966 11.8317 16.9146L10.073 14.7884C10.0078 14.7057 9.88665 14.6935 9.80444 14.7619L9.26581 15.2041C9.18361 15.2726 9.17503 15.3925 9.23956 15.4717L9.44676 15.7211L6.08319 18.4899L5.87673 18.244C5.81147 18.1613 5.69035 18.1491 5.60815 18.2176L5.06878 18.6562C4.98658 18.7247 4.978 18.8446 5.04327 18.9273L6.80196 21.0536Z" fill="black"/>
</svg>
