<svg width="24" height="24" viewBox="0 0 24 24" fill="none" xmlns="http://www.w3.org/2000/svg">
<path d="M18.735 5.98627V3.29688C18.735 3.1327 18.6023 3 18.4381 3H14.2812C14.1171 3 13.9844 3.1327 13.9844 3.29688V5.98627C12.6511 6.1347 11.6105 7.26728 11.61 8.63973V11.8807C11.6091 11.8896 11.6046 11.8973 11.6046 11.9065C11.6046 11.9158 11.6091 11.9235 11.61 11.9324V20.5156C11.61 21.3341 12.2758 22 13.0943 22H19.625C20.4435 22 21.1094 21.3341 21.1094 20.5156V8.63973C21.1088 7.26758 20.0682 6.1347 18.735 5.98627ZM14.5781 3.59375H18.1412V4.18661H16.9531C16.7889 4.18661 16.6562 4.31931 16.6562 4.48348C16.6562 4.64736 16.5232 4.78036 16.3594 4.78036C16.1955 4.78036 16.0625 4.64736 16.0625 4.48348C16.0625 4.48348 16.0625 4.48348 16.0625 4.48319C16.0625 4.45677 16.0539 4.43331 16.0473 4.40897C16.0438 4.39561 16.0444 4.38047 16.039 4.3677C16.0364 4.36117 16.0307 4.35672 16.0275 4.35019C15.9785 4.254 15.8811 4.18631 15.7656 4.18631L14.5781 4.1872V3.59375ZM14.5781 4.78095L15.5237 4.78066C15.6466 5.12533 15.9731 5.37411 16.3594 5.37411C16.7456 5.37411 17.0722 5.12503 17.1951 4.78036H18.1412V5.96845H14.5781V4.78095ZM20.5156 20.5156C20.5156 21.0067 20.116 21.4063 19.625 21.4063H13.0943C12.6033 21.4063 12.2037 21.0067 12.2037 20.5156V12.2031H13.0937V18.1421C13.0937 18.3063 13.2264 18.439 13.3906 18.439H19.3281C19.4923 18.439 19.625 18.3063 19.625 18.1421V12.2031H20.5156V20.5156ZM13.6875 17.8452V10.4213H19.0312V17.8452H13.6875ZM20.5156 11.6094H19.625V10.1244C19.625 9.96023 19.4923 9.82753 19.3281 9.82753H13.3906C13.2264 9.82753 13.0937 9.96023 13.0937 10.1244V11.6094H12.2037V8.64033C12.2037 7.49469 13.1362 6.5622 14.2818 6.5622H18.4375C19.5831 6.5622 20.5156 7.49469 20.5156 8.64033V11.6094Z" fill="black"/>
<path d="M16.3594 14.8732C17.1778 14.8732 17.8437 14.2073 17.8437 13.3888C17.8437 12.6431 16.7774 11.5942 16.5636 11.3915C16.4487 11.2831 16.2697 11.2831 16.1548 11.3915C15.9411 11.5942 14.8747 12.6431 14.8747 13.3888C14.875 14.2073 15.5409 14.8732 16.3594 14.8732ZM16.3594 12.0265C16.78 12.4659 17.25 13.0765 17.25 13.3888C17.25 13.8799 16.8504 14.2795 16.3594 14.2795C15.8683 14.2795 15.4687 13.8799 15.4687 13.3888C15.4687 13.0774 15.939 12.4668 16.3594 12.0265Z" fill="black"/>
<path d="M17.8437 15.469H14.875C14.7108 15.469 14.5781 15.6018 14.5781 15.7659C14.5781 15.9301 14.7108 16.0628 14.875 16.0628H17.8437C18.0079 16.0628 18.1406 15.9301 18.1406 15.7659C18.1406 15.6018 18.0079 15.469 17.8437 15.469Z" fill="black"/>
<path d="M17.25 16.3597H15.4687C15.3046 16.3597 15.1719 16.4924 15.1719 16.6565C15.1719 16.8207 15.3046 16.9534 15.4687 16.9534H17.25C17.4142 16.9534 17.5469 16.8207 17.5469 16.6565C17.5469 16.4924 17.4142 16.3597 17.25 16.3597Z" fill="black"/>
<path d="M6.85936 8.04688C4.73136 8.04688 2.99998 9.77825 2.99998 11.9063V12.7969C2.99998 13.1038 3.03977 13.401 3.10775 13.6875C3.03888 13.9775 2.99998 14.2759 2.99998 14.5781V15.4688C2.99998 15.7757 3.03977 16.0729 3.10775 16.3594C3.03888 16.6494 2.99998 16.9478 2.99998 17.25V18.1406C2.99998 20.2686 4.73136 22 6.85936 22C8.98736 22 10.7187 20.2686 10.7187 18.1406V17.25C10.7187 16.9481 10.6798 16.6491 10.6113 16.3576C10.679 16.0717 10.7187 15.7751 10.7187 15.4688V14.5781C10.7187 14.2762 10.6798 13.9773 10.6113 13.6857C10.679 13.3998 10.7187 13.1033 10.7187 12.7969V11.9063C10.7187 9.77825 8.98736 8.04688 6.85936 8.04688ZM6.85936 21.4063C5.77725 21.4063 4.81983 20.8751 4.22519 20.0626C4.91542 20.7095 5.84048 21.1094 6.85936 21.1094C7.87823 21.1094 8.8033 20.7095 9.49353 20.0626C8.89889 20.8751 7.94147 21.4063 6.85936 21.4063ZM6.85936 20.5156C5.15678 20.5156 3.75613 19.2052 3.60858 17.5403C4.29466 18.6133 5.49373 19.3281 6.85936 19.3281C8.22498 19.3281 9.42406 18.6133 10.1101 17.5403C9.96259 19.2052 8.56194 20.5156 6.85936 20.5156ZM4.22519 17.3907C4.91542 18.0376 5.84048 18.4375 6.85936 18.4375C7.87823 18.4375 8.8033 18.0376 9.49353 17.3907C8.89889 18.2033 7.94147 18.7344 6.85936 18.7344C5.77725 18.7344 4.81983 18.2033 4.22519 17.3907ZM6.85936 17.8438C5.15678 17.8438 3.75613 16.5333 3.60858 14.8685C4.29466 15.9414 5.49373 16.6563 6.85936 16.6563C8.22498 16.6563 9.42406 15.9414 10.1101 14.8685C9.96259 16.5333 8.56194 17.8438 6.85936 17.8438ZM4.22519 14.7188C4.91542 15.3657 5.84048 15.7656 6.85936 15.7656C7.87823 15.7656 8.8033 15.3657 9.49353 14.7188C8.89889 15.5314 7.94147 16.0625 6.85936 16.0625C5.77725 16.0625 4.81983 15.5314 4.22519 14.7188ZM6.85936 15.1719C5.05881 15.1719 3.59373 13.7068 3.59373 11.9063C3.59373 10.1057 5.05881 8.64063 6.85936 8.64063C8.65991 8.64063 10.125 10.1057 10.125 11.9063C10.125 13.7068 8.65991 15.1719 6.85936 15.1719Z" fill="black"/>
</svg>
