<svg width="24" height="24" viewBox="0 0 24 24" fill="none" xmlns="http://www.w3.org/2000/svg">
<path d="M13.3404 15.5031C14.0846 15.9104 14.5913 16.5813 14.7523 17.4155C14.9007 18.1664 14.7599 19.041 14.2602 19.9542C13.7481 20.8899 13.007 21.5946 12.2197 21.9686C11.3903 22.3664 10.5131 22.4151 9.77784 22.0127C8.97983 21.576 8.78046 20.897 8.92926 20.0503C9.0595 19.3226 9.46895 18.4893 9.95633 17.5988C10.4511 16.6946 10.8799 16.007 11.3702 15.6115C11.9433 15.1497 12.5558 15.0737 13.3404 15.5031ZM13.9809 17.569C13.8628 16.9757 13.4974 16.4937 12.9594 16.1993C12.5066 15.9515 12.164 15.9813 11.8608 16.2266C11.4747 16.5382 11.097 17.1539 10.6467 17.9766C10.1915 18.8084 9.81222 19.576 9.70503 20.187C9.61392 20.6835 9.72397 21.0785 10.1588 21.3165C10.6609 21.5913 11.2835 21.5502 11.884 21.262C12.5267 20.9499 13.1413 20.3699 13.5742 19.5788C13.978 18.8304 14.0929 18.1414 13.9809 17.569Z" fill="black"/>
<path d="M8.48318 13.7437C7.9452 13.4492 7.34226 13.4012 6.77888 13.6216C6.23637 13.8358 5.71796 14.304 5.30975 15.0499C4.8768 15.841 4.71254 16.6734 4.80308 17.3809C4.88403 18.042 5.18499 18.5886 5.6871 18.8634C6.12645 19.1038 6.51404 18.9811 6.8831 18.6367C7.34246 18.2126 7.78205 17.4838 8.23726 16.6521C8.68753 15.8293 9.00251 15.1793 9.05681 14.6862C9.0955 14.2961 8.94046 13.9939 8.48318 13.7437ZM6.4968 12.8915C7.28622 12.5775 8.12445 12.6427 8.86866 13.05C9.64873 13.4769 9.9149 14.0338 9.83939 14.7679C9.77054 15.394 9.42247 16.1258 8.92767 17.0299C8.43782 17.925 7.95215 18.7166 7.41642 19.2165C6.7904 19.7961 6.10411 19.9963 5.30611 19.5595C4.57087 19.1571 4.13898 18.3921 4.02698 17.479C3.92455 16.6122 4.11171 15.6103 4.62383 14.6745C5.11909 13.7589 5.78438 13.1713 6.4968 12.8915Z" fill="black"/>
<path d="M11.9427 15.2786C11.9338 15.497 12.103 15.6777 12.3203 15.685C12.5377 15.6924 12.7187 15.5212 12.7276 15.3028L12.837 12.6546C12.8458 12.4362 12.6767 12.2555 12.4593 12.2481C12.2419 12.2408 12.0609 12.4119 12.0521 12.6303L11.9427 15.2786Z" fill="black"/>
<path d="M9.36071 13.4602C9.18152 13.5854 9.13496 13.8301 9.25832 14.0093C9.38167 14.1884 9.62501 14.2334 9.8042 14.1083L11.9758 12.5886C12.155 12.4635 12.2016 12.2187 12.0782 12.0396C11.9549 11.8605 11.7115 11.8154 11.5323 11.9406L9.36071 13.4602Z" fill="black"/>
<path d="M17.7643 10.0171C17.975 9.9621 18.1027 9.75002 18.0494 9.53873C17.9961 9.32744 17.7858 9.20063 17.5751 9.25566L13.4073 10.3349C13.1966 10.39 13.0689 10.602 13.1222 10.8133C13.1755 11.0246 13.3858 11.1514 13.5965 11.0964L17.7643 10.0171Z" fill="black"/>
<path d="M11.8456 6.12004C11.7784 5.91288 11.5582 5.80415 11.3515 5.87314C11.1448 5.94212 11.035 6.16401 11.1023 6.37117L12.4398 10.4634C12.5071 10.6705 12.7272 10.7793 12.9339 10.7103C13.1406 10.6413 13.2504 10.4194 13.1832 10.2123L11.8456 6.12004Z" fill="black"/>
<path d="M13.3373 10.1967C13.6691 10.3783 13.8952 10.6783 13.9937 11.02C14.0921 11.3618 14.0608 11.7383 13.8778 12.0728C13.6947 12.4073 13.3944 12.6366 13.0535 12.7378C12.7126 12.8391 12.338 12.8104 12.0063 12.6288C11.6745 12.4472 11.4484 12.1472 11.3499 11.8055C11.2515 11.4638 11.2827 11.0873 11.4658 10.7528C11.6489 10.4182 11.9492 10.189 12.2901 10.0877C12.6265 9.98396 13.0011 10.0127 13.3373 10.1967ZM13.2353 11.2453C13.1931 11.0989 13.0953 10.969 12.9563 10.8929C12.8128 10.8144 12.6507 10.802 12.5091 10.8479C12.363 10.8913 12.2329 10.9905 12.1562 11.1306C12.0771 11.2753 12.0636 11.4383 12.1083 11.5802C12.1505 11.7267 12.2483 11.8566 12.3873 11.9326C12.5307 12.0111 12.6929 12.0235 12.8345 11.9777C12.9806 11.9343 13.1107 11.8351 13.1874 11.6949C13.2665 11.5503 13.2775 11.3918 13.2353 11.2453Z" fill="black"/>
<path d="M12.2339 2.91947C13.8302 2.99413 15.2855 3.3794 16.5971 4.09132C17.9132 4.80568 19.0764 5.84178 20.0745 7.22222L19.7604 7.45562L20.0815 7.22015C20.1749 7.34761 20.1793 7.52042 20.1031 7.64906L18.7053 10.2032C18.6014 10.393 18.3624 10.4678 18.1696 10.3623C18.1158 10.3329 18.0739 10.2923 18.0415 10.2452C17.1013 9.13146 16.024 8.23638 14.8135 7.57393C13.5941 6.90656 12.235 6.46239 10.7309 6.26193C10.5145 6.2316 10.3667 6.03323 10.3984 5.81561C10.4028 5.76511 10.423 5.71745 10.4478 5.67224L11.8431 3.12266C11.9178 2.97555 12.0767 2.89805 12.2339 2.91947ZM16.2186 4.78296C15.0729 4.16183 13.8017 3.8127 12.4078 3.71956L11.3984 5.56394C12.7793 5.80857 14.0423 6.2472 15.192 6.88229C16.3397 7.51039 17.3696 8.3325 18.2846 9.33258L19.294 7.4882C18.3934 6.30214 17.3688 5.40654 16.2186 4.78296Z" fill="black"/>
<path d="M20.6008 6.72894C20.7048 6.53908 20.6389 6.29744 20.4461 6.19194C20.2579 6.08889 20.0168 6.15671 19.9104 6.35109L18.3914 9.1267C18.2875 9.31657 18.3533 9.55821 18.5461 9.66371C18.7389 9.76921 18.9754 9.69893 19.0818 9.50455L20.6008 6.72894Z" fill="black"/>
<path d="M13.0288 2.58491C13.1327 2.39504 13.0668 2.1534 12.8741 2.0479C12.6858 1.94485 12.4447 2.01268 12.3384 2.20706L10.8193 4.98267C10.7154 5.17253 10.7813 5.41417 10.974 5.51967C11.1668 5.62518 11.4034 5.5549 11.5097 5.36052L13.0288 2.58491Z" fill="black"/>
</svg>
